<mxfile host="Electron" modified="2025-01-02T17:26:19.250Z" agent="Mozilla/5.0 (Windows NT 10.0; Win64; x64) AppleWebKit/537.36 (KHTML, like Gecko) draw.io/22.1.2 Chrome/114.0.5735.289 Electron/25.9.4 Safari/537.36" etag="7mTcyuQspwRa8hR2EfGU" version="22.1.2" type="device">
  <diagram name="Pagina-1" id="eXUvsfncS1StxYilKOwg">
    <mxGraphModel dx="567" dy="1178" grid="1" gridSize="10" guides="1" tooltips="1" connect="1" arrows="1" fold="1" page="1" pageScale="1" pageWidth="1100" pageHeight="850" math="0" shadow="0">
      <root>
        <mxCell id="0" />
        <mxCell id="1" parent="0" />
        <mxCell id="WNAg6DyZ-CmmunSY68zc-1" value="" style="group" parent="1" vertex="1" connectable="0">
          <mxGeometry x="866" y="-490" width="338.59000000000003" height="130" as="geometry" />
        </mxCell>
        <mxCell id="y7ss4DekmQoqYhnmxPPg-2" style="rounded=0;hachureGap=4;orthogonalLoop=1;jettySize=auto;html=1;exitX=1;exitY=1;exitDx=0;exitDy=0;fontFamily=Architects Daughter;fontSource=https%3A%2F%2Ffonts.googleapis.com%2Fcss%3Ffamily%3DArchitects%2BDaughter;fontSize=16;endArrow=none;endFill=0;" edge="1" parent="WNAg6DyZ-CmmunSY68zc-1" source="WNAg6DyZ-CmmunSY68zc-2" target="y7ss4DekmQoqYhnmxPPg-1">
          <mxGeometry relative="1" as="geometry" />
        </mxCell>
        <mxCell id="WNAg6DyZ-CmmunSY68zc-2" value="Videogioco" style="whiteSpace=wrap;html=1;align=center;hachureGap=4;fontFamily=Helvetica;fontSize=20;rounded=0;" parent="WNAg6DyZ-CmmunSY68zc-1" vertex="1">
          <mxGeometry x="108.12" y="65" width="130" height="40" as="geometry" />
        </mxCell>
        <mxCell id="WNAg6DyZ-CmmunSY68zc-3" value="" style="ellipse;whiteSpace=wrap;html=1;aspect=fixed;rounded=0;hachureGap=4;strokeColor=default;align=center;verticalAlign=middle;fontFamily=Helvetica;fontSize=20;fontColor=default;fillColor=#FFFFFF;" parent="WNAg6DyZ-CmmunSY68zc-1" vertex="1">
          <mxGeometry x="38.120000000000005" y="80" width="10" height="10" as="geometry" />
        </mxCell>
        <mxCell id="WNAg6DyZ-CmmunSY68zc-4" style="edgeStyle=none;shape=connector;rounded=0;hachureGap=4;orthogonalLoop=1;jettySize=auto;html=1;exitX=0;exitY=0.5;exitDx=0;exitDy=0;entryX=1;entryY=0.5;entryDx=0;entryDy=0;labelBackgroundColor=default;strokeColor=default;align=center;verticalAlign=middle;fontFamily=Helvetica;fontSource=https%3A%2F%2Ffonts.googleapis.com%2Fcss%3Ffamily%3DArchitects%2BDaughter;fontSize=20;fontColor=default;endArrow=none;endFill=0;" parent="WNAg6DyZ-CmmunSY68zc-1" source="WNAg6DyZ-CmmunSY68zc-2" target="WNAg6DyZ-CmmunSY68zc-3" edge="1">
          <mxGeometry relative="1" as="geometry" />
        </mxCell>
        <mxCell id="WNAg6DyZ-CmmunSY68zc-5" value="" style="ellipse;whiteSpace=wrap;html=1;aspect=fixed;rounded=0;hachureGap=4;strokeColor=default;align=center;verticalAlign=middle;fontFamily=Helvetica;fontSize=20;fontColor=default;fillColor=#FFFFFF;" parent="WNAg6DyZ-CmmunSY68zc-1" vertex="1">
          <mxGeometry x="108.12" y="20" width="10" height="10" as="geometry" />
        </mxCell>
        <mxCell id="WNAg6DyZ-CmmunSY68zc-6" style="edgeStyle=none;shape=connector;rounded=0;hachureGap=4;orthogonalLoop=1;jettySize=auto;html=1;exitX=0.25;exitY=0;exitDx=0;exitDy=0;entryX=1;entryY=1;entryDx=0;entryDy=0;labelBackgroundColor=default;strokeColor=default;align=center;verticalAlign=middle;fontFamily=Helvetica;fontSource=https%3A%2F%2Ffonts.googleapis.com%2Fcss%3Ffamily%3DArchitects%2BDaughter;fontSize=20;fontColor=default;endArrow=none;endFill=0;" parent="WNAg6DyZ-CmmunSY68zc-1" source="WNAg6DyZ-CmmunSY68zc-2" target="WNAg6DyZ-CmmunSY68zc-5" edge="1">
          <mxGeometry relative="1" as="geometry" />
        </mxCell>
        <mxCell id="WNAg6DyZ-CmmunSY68zc-7" value="" style="ellipse;whiteSpace=wrap;html=1;aspect=fixed;rounded=0;hachureGap=4;strokeColor=default;align=center;verticalAlign=middle;fontFamily=Helvetica;fontSize=20;fontColor=default;fillColor=#FFFFFF;" parent="WNAg6DyZ-CmmunSY68zc-1" vertex="1">
          <mxGeometry x="48.120000000000005" y="120" width="10" height="10" as="geometry" />
        </mxCell>
        <mxCell id="WNAg6DyZ-CmmunSY68zc-8" style="edgeStyle=none;shape=connector;rounded=0;hachureGap=4;orthogonalLoop=1;jettySize=auto;html=1;exitX=0;exitY=1;exitDx=0;exitDy=0;entryX=1;entryY=0.5;entryDx=0;entryDy=0;labelBackgroundColor=default;strokeColor=default;align=center;verticalAlign=middle;fontFamily=Helvetica;fontSource=https%3A%2F%2Ffonts.googleapis.com%2Fcss%3Ffamily%3DArchitects%2BDaughter;fontSize=20;fontColor=default;endArrow=none;endFill=0;" parent="WNAg6DyZ-CmmunSY68zc-1" source="WNAg6DyZ-CmmunSY68zc-2" target="WNAg6DyZ-CmmunSY68zc-7" edge="1">
          <mxGeometry relative="1" as="geometry" />
        </mxCell>
        <mxCell id="WNAg6DyZ-CmmunSY68zc-9" value="" style="edgeStyle=none;shape=connector;rounded=0;hachureGap=4;orthogonalLoop=1;jettySize=auto;html=1;labelBackgroundColor=default;strokeColor=default;align=center;verticalAlign=middle;fontFamily=Helvetica;fontSource=https%3A%2F%2Ffonts.googleapis.com%2Fcss%3Ffamily%3DArchitects%2BDaughter;fontSize=20;fontColor=default;endArrow=none;endFill=0;" parent="WNAg6DyZ-CmmunSY68zc-1" source="WNAg6DyZ-CmmunSY68zc-10" target="WNAg6DyZ-CmmunSY68zc-2" edge="1">
          <mxGeometry relative="1" as="geometry" />
        </mxCell>
        <mxCell id="WNAg6DyZ-CmmunSY68zc-10" value="" style="ellipse;whiteSpace=wrap;html=1;aspect=fixed;rounded=0;hachureGap=4;strokeColor=default;align=center;verticalAlign=middle;fontFamily=Helvetica;fontSize=20;fontColor=default;fillColor=#FFFFFF;" parent="WNAg6DyZ-CmmunSY68zc-1" vertex="1">
          <mxGeometry x="204" y="120" width="10" height="10" as="geometry" />
        </mxCell>
        <mxCell id="WNAg6DyZ-CmmunSY68zc-11" value="" style="ellipse;whiteSpace=wrap;html=1;aspect=fixed;rounded=0;hachureGap=4;strokeColor=default;align=center;verticalAlign=middle;fontFamily=Helvetica;fontSize=20;fontColor=default;fillColor=#FFFFFF;dashed=1;direction=south;" parent="WNAg6DyZ-CmmunSY68zc-1" vertex="1">
          <mxGeometry x="274" y="45" width="10" height="10" as="geometry" />
        </mxCell>
        <mxCell id="WNAg6DyZ-CmmunSY68zc-12" style="edgeStyle=none;shape=connector;rounded=0;hachureGap=4;orthogonalLoop=1;jettySize=auto;html=1;exitX=1;exitY=0;exitDx=0;exitDy=0;labelBackgroundColor=default;strokeColor=default;align=center;verticalAlign=middle;fontFamily=Helvetica;fontSource=https%3A%2F%2Ffonts.googleapis.com%2Fcss%3Ffamily%3DArchitects%2BDaughter;fontSize=20;fontColor=default;endArrow=none;endFill=0;" parent="WNAg6DyZ-CmmunSY68zc-1" source="WNAg6DyZ-CmmunSY68zc-2" target="WNAg6DyZ-CmmunSY68zc-11" edge="1">
          <mxGeometry relative="1" as="geometry" />
        </mxCell>
        <mxCell id="WNAg6DyZ-CmmunSY68zc-13" value="" style="ellipse;whiteSpace=wrap;html=1;aspect=fixed;rounded=0;hachureGap=4;strokeColor=default;align=center;verticalAlign=middle;fontFamily=Helvetica;fontSize=20;fontColor=default;fillColor=#FFFFFF;" parent="WNAg6DyZ-CmmunSY68zc-1" vertex="1">
          <mxGeometry x="211.87" y="30" width="10" height="10" as="geometry" />
        </mxCell>
        <mxCell id="WNAg6DyZ-CmmunSY68zc-14" style="edgeStyle=none;shape=connector;rounded=0;hachureGap=4;orthogonalLoop=1;jettySize=auto;html=1;exitX=0.75;exitY=0;exitDx=0;exitDy=0;entryX=0;entryY=1;entryDx=0;entryDy=0;labelBackgroundColor=default;strokeColor=default;align=center;verticalAlign=middle;fontFamily=Helvetica;fontSource=https%3A%2F%2Ffonts.googleapis.com%2Fcss%3Ffamily%3DArchitects%2BDaughter;fontSize=20;fontColor=default;endArrow=none;endFill=0;" parent="WNAg6DyZ-CmmunSY68zc-1" source="WNAg6DyZ-CmmunSY68zc-2" target="WNAg6DyZ-CmmunSY68zc-13" edge="1">
          <mxGeometry relative="1" as="geometry" />
        </mxCell>
        <mxCell id="WNAg6DyZ-CmmunSY68zc-15" value="&lt;font style=&quot;font-size: 10px;&quot;&gt;Nome&lt;/font&gt;" style="text;html=1;strokeColor=none;fillColor=none;align=center;verticalAlign=middle;whiteSpace=wrap;rounded=0;fontSize=20;fontFamily=Helvetica;fontColor=default;" parent="WNAg6DyZ-CmmunSY68zc-1" vertex="1">
          <mxGeometry x="91.87" width="42.5" height="20" as="geometry" />
        </mxCell>
        <mxCell id="WNAg6DyZ-CmmunSY68zc-16" value="&lt;font style=&quot;font-size: 10px;&quot;&gt;Genere&lt;/font&gt;" style="text;html=1;strokeColor=none;fillColor=none;align=center;verticalAlign=middle;whiteSpace=wrap;rounded=0;fontSize=20;fontFamily=Helvetica;fontColor=default;" parent="WNAg6DyZ-CmmunSY68zc-1" vertex="1">
          <mxGeometry x="211.87" y="110" width="42.5" height="20" as="geometry" />
        </mxCell>
        <mxCell id="WNAg6DyZ-CmmunSY68zc-17" value="&lt;font style=&quot;font-size: 10px;&quot;&gt;DataRilascio&lt;/font&gt;" style="text;html=1;strokeColor=none;fillColor=none;align=center;verticalAlign=middle;whiteSpace=wrap;rounded=0;fontSize=20;fontFamily=Helvetica;fontColor=default;" parent="WNAg6DyZ-CmmunSY68zc-1" vertex="1">
          <mxGeometry x="188.74" y="10" width="56.25" height="20" as="geometry" />
        </mxCell>
        <mxCell id="WNAg6DyZ-CmmunSY68zc-18" value="&lt;font style=&quot;font-size: 10px;&quot;&gt;StudioSviluppatore&lt;/font&gt;" style="text;html=1;strokeColor=none;fillColor=none;align=center;verticalAlign=middle;whiteSpace=wrap;rounded=0;fontSize=20;fontFamily=Helvetica;fontColor=default;" parent="WNAg6DyZ-CmmunSY68zc-1" vertex="1">
          <mxGeometry y="60" width="86.25" height="20" as="geometry" />
        </mxCell>
        <mxCell id="WNAg6DyZ-CmmunSY68zc-19" value="" style="group" parent="WNAg6DyZ-CmmunSY68zc-1" vertex="1" connectable="0">
          <mxGeometry x="58.120000000000005" y="20" width="15" height="30" as="geometry" />
        </mxCell>
        <mxCell id="WNAg6DyZ-CmmunSY68zc-20" value="" style="ellipse;whiteSpace=wrap;html=1;aspect=fixed;rounded=0;hachureGap=4;strokeColor=default;align=center;verticalAlign=middle;fontFamily=Helvetica;fontSize=20;fontColor=default;fillColor=#000000;" parent="WNAg6DyZ-CmmunSY68zc-19" vertex="1">
          <mxGeometry x="2.5" y="20" width="10" height="10" as="geometry" />
        </mxCell>
        <mxCell id="WNAg6DyZ-CmmunSY68zc-21" value="&lt;font style=&quot;font-size: 10px;&quot;&gt;ID_Videogioco&lt;/font&gt;" style="text;html=1;strokeColor=none;fillColor=none;align=center;verticalAlign=middle;whiteSpace=wrap;rounded=0;fontSize=20;fontFamily=Helvetica;fontColor=default;" parent="WNAg6DyZ-CmmunSY68zc-19" vertex="1">
          <mxGeometry x="-25" width="65" height="20" as="geometry" />
        </mxCell>
        <mxCell id="WNAg6DyZ-CmmunSY68zc-22" style="rounded=0;hachureGap=4;orthogonalLoop=1;jettySize=auto;html=1;exitX=0;exitY=0;exitDx=0;exitDy=0;entryX=1;entryY=1;entryDx=0;entryDy=0;fontFamily=Helvetica;fontSource=https%3A%2F%2Ffonts.googleapis.com%2Fcss%3Ffamily%3DArchitects%2BDaughter;fontSize=20;fontColor=default;endArrow=none;endFill=0;" parent="WNAg6DyZ-CmmunSY68zc-1" source="WNAg6DyZ-CmmunSY68zc-2" target="WNAg6DyZ-CmmunSY68zc-20" edge="1">
          <mxGeometry relative="1" as="geometry" />
        </mxCell>
        <mxCell id="WNAg6DyZ-CmmunSY68zc-23" value="&lt;font style=&quot;font-size: 10px;&quot;&gt;Prezzo&lt;br&gt;&lt;/font&gt;" style="text;html=1;strokeColor=none;fillColor=none;align=center;verticalAlign=middle;whiteSpace=wrap;rounded=0;fontSize=20;fontFamily=Helvetica;fontColor=default;" parent="WNAg6DyZ-CmmunSY68zc-1" vertex="1">
          <mxGeometry x="31.870000000000005" y="100" width="42.5" height="20" as="geometry" />
        </mxCell>
        <mxCell id="WNAg6DyZ-CmmunSY68zc-24" value="&lt;font style=&quot;font-size: 10px;&quot;&gt;MediaRecensioni&lt;/font&gt;" style="text;html=1;strokeColor=none;fillColor=none;align=center;verticalAlign=middle;whiteSpace=wrap;rounded=0;fontSize=20;fontFamily=Helvetica;fontColor=default;" parent="WNAg6DyZ-CmmunSY68zc-1" vertex="1">
          <mxGeometry x="233.53000000000003" y="25" width="90.93" height="20" as="geometry" />
        </mxCell>
        <mxCell id="WNAg6DyZ-CmmunSY68zc-25" value="&lt;font color=&quot;#ff8000&quot; style=&quot;font-size: 10px;&quot; face=&quot;Helvetica&quot;&gt;(N, M)&lt;/font&gt;" style="text;html=1;align=center;verticalAlign=middle;resizable=0;points=[];autosize=1;fontSize=20;fontFamily=Architects Daughter;" parent="WNAg6DyZ-CmmunSY68zc-1" vertex="1">
          <mxGeometry x="132.3699999999999" y="34" width="50" height="40" as="geometry" />
        </mxCell>
        <mxCell id="WNAg6DyZ-CmmunSY68zc-26" value="&lt;font color=&quot;#ff8000&quot; style=&quot;font-size: 10px;&quot; face=&quot;Helvetica&quot;&gt;(N, 1)&lt;/font&gt;" style="text;html=1;align=center;verticalAlign=middle;resizable=0;points=[];autosize=1;fontSize=20;fontFamily=Architects Daughter;" parent="WNAg6DyZ-CmmunSY68zc-1" vertex="1">
          <mxGeometry x="228.52999999999997" y="55" width="50" height="40" as="geometry" />
        </mxCell>
        <mxCell id="y7ss4DekmQoqYhnmxPPg-1" value="" style="ellipse;whiteSpace=wrap;html=1;aspect=fixed;rounded=0;hachureGap=4;strokeColor=default;align=center;verticalAlign=middle;fontFamily=Helvetica;fontSize=20;fontColor=default;fillColor=#FFFFFF;" vertex="1" parent="WNAg6DyZ-CmmunSY68zc-1">
          <mxGeometry x="278.53" y="110" width="10" height="10" as="geometry" />
        </mxCell>
        <mxCell id="y7ss4DekmQoqYhnmxPPg-3" value="&lt;font style=&quot;font-size: 10px;&quot;&gt;num_recensioni&lt;/font&gt;" style="text;html=1;strokeColor=none;fillColor=none;align=center;verticalAlign=middle;whiteSpace=wrap;rounded=0;fontSize=20;fontFamily=Helvetica;fontColor=default;" vertex="1" parent="WNAg6DyZ-CmmunSY68zc-1">
          <mxGeometry x="262.09" y="90" width="76.5" height="20" as="geometry" />
        </mxCell>
        <mxCell id="WNAg6DyZ-CmmunSY68zc-27" value="" style="group" parent="1" vertex="1" connectable="0">
          <mxGeometry x="378" y="-470" width="376.25" height="135" as="geometry" />
        </mxCell>
        <mxCell id="WNAg6DyZ-CmmunSY68zc-28" style="rounded=0;hachureGap=4;orthogonalLoop=1;jettySize=auto;html=1;exitX=1;exitY=0.5;exitDx=0;exitDy=0;fontFamily=Helvetica;fontSource=https%3A%2F%2Ffonts.googleapis.com%2Fcss%3Ffamily%3DArchitects%2BDaughter;fontSize=20;fontColor=default;endArrow=none;endFill=0;" parent="WNAg6DyZ-CmmunSY68zc-27" source="WNAg6DyZ-CmmunSY68zc-29" target="WNAg6DyZ-CmmunSY68zc-46" edge="1">
          <mxGeometry relative="1" as="geometry">
            <mxPoint x="260" y="90" as="targetPoint" />
          </mxGeometry>
        </mxCell>
        <mxCell id="WNAg6DyZ-CmmunSY68zc-29" value="Recensione" style="whiteSpace=wrap;html=1;align=center;hachureGap=4;fontFamily=Helvetica;fontSize=20;rounded=0;" parent="WNAg6DyZ-CmmunSY68zc-27" vertex="1">
          <mxGeometry x="108.12" y="70" width="130" height="40" as="geometry" />
        </mxCell>
        <mxCell id="WNAg6DyZ-CmmunSY68zc-30" value="" style="ellipse;whiteSpace=wrap;html=1;aspect=fixed;rounded=0;hachureGap=4;strokeColor=default;align=center;verticalAlign=middle;fontFamily=Helvetica;fontSize=20;fontColor=default;fillColor=#FFFFFF;" parent="WNAg6DyZ-CmmunSY68zc-27" vertex="1">
          <mxGeometry x="108.12" y="20" width="10" height="10" as="geometry" />
        </mxCell>
        <mxCell id="WNAg6DyZ-CmmunSY68zc-31" style="edgeStyle=none;shape=connector;rounded=0;hachureGap=4;orthogonalLoop=1;jettySize=auto;html=1;exitX=0.25;exitY=0;exitDx=0;exitDy=0;entryX=1;entryY=1;entryDx=0;entryDy=0;labelBackgroundColor=default;strokeColor=default;align=center;verticalAlign=middle;fontFamily=Helvetica;fontSource=https%3A%2F%2Ffonts.googleapis.com%2Fcss%3Ffamily%3DArchitects%2BDaughter;fontSize=20;fontColor=default;endArrow=none;endFill=0;" parent="WNAg6DyZ-CmmunSY68zc-27" source="WNAg6DyZ-CmmunSY68zc-29" target="WNAg6DyZ-CmmunSY68zc-30" edge="1">
          <mxGeometry relative="1" as="geometry" />
        </mxCell>
        <mxCell id="WNAg6DyZ-CmmunSY68zc-32" value="" style="ellipse;whiteSpace=wrap;html=1;aspect=fixed;rounded=0;hachureGap=4;strokeColor=default;align=center;verticalAlign=middle;fontFamily=Helvetica;fontSize=20;fontColor=default;fillColor=#FFFFFF;" parent="WNAg6DyZ-CmmunSY68zc-27" vertex="1">
          <mxGeometry x="310" y="20" width="10" height="10" as="geometry" />
        </mxCell>
        <mxCell id="WNAg6DyZ-CmmunSY68zc-33" style="edgeStyle=none;shape=connector;rounded=0;hachureGap=4;orthogonalLoop=1;jettySize=auto;html=1;exitX=1;exitY=0;exitDx=0;exitDy=0;labelBackgroundColor=default;strokeColor=default;align=center;verticalAlign=middle;fontFamily=Helvetica;fontSource=https%3A%2F%2Ffonts.googleapis.com%2Fcss%3Ffamily%3DArchitects%2BDaughter;fontSize=20;fontColor=default;endArrow=none;endFill=0;" parent="WNAg6DyZ-CmmunSY68zc-27" source="WNAg6DyZ-CmmunSY68zc-29" target="WNAg6DyZ-CmmunSY68zc-32" edge="1">
          <mxGeometry relative="1" as="geometry" />
        </mxCell>
        <mxCell id="WNAg6DyZ-CmmunSY68zc-34" value="" style="ellipse;whiteSpace=wrap;html=1;aspect=fixed;rounded=0;hachureGap=4;strokeColor=default;align=center;verticalAlign=middle;fontFamily=Helvetica;fontSize=20;fontColor=default;fillColor=#FFFFFF;" parent="WNAg6DyZ-CmmunSY68zc-27" vertex="1">
          <mxGeometry x="41.41" y="85" width="10" height="10" as="geometry" />
        </mxCell>
        <mxCell id="WNAg6DyZ-CmmunSY68zc-35" style="edgeStyle=none;shape=connector;rounded=0;hachureGap=4;orthogonalLoop=1;jettySize=auto;html=1;exitX=0;exitY=0.5;exitDx=0;exitDy=0;labelBackgroundColor=default;strokeColor=default;align=center;verticalAlign=middle;fontFamily=Helvetica;fontSource=https%3A%2F%2Ffonts.googleapis.com%2Fcss%3Ffamily%3DArchitects%2BDaughter;fontSize=20;fontColor=default;endArrow=none;endFill=0;" parent="WNAg6DyZ-CmmunSY68zc-27" source="WNAg6DyZ-CmmunSY68zc-29" target="WNAg6DyZ-CmmunSY68zc-34" edge="1">
          <mxGeometry relative="1" as="geometry">
            <mxPoint x="50" y="90" as="targetPoint" />
          </mxGeometry>
        </mxCell>
        <mxCell id="WNAg6DyZ-CmmunSY68zc-36" value="" style="ellipse;whiteSpace=wrap;html=1;aspect=fixed;rounded=0;hachureGap=4;strokeColor=default;align=center;verticalAlign=middle;fontFamily=Helvetica;fontSize=20;fontColor=default;fillColor=#FFFFFF;" parent="WNAg6DyZ-CmmunSY68zc-27" vertex="1">
          <mxGeometry x="228.12" y="30" width="10" height="10" as="geometry" />
        </mxCell>
        <mxCell id="WNAg6DyZ-CmmunSY68zc-37" style="edgeStyle=none;shape=connector;rounded=0;hachureGap=4;orthogonalLoop=1;jettySize=auto;html=1;exitX=0.75;exitY=0;exitDx=0;exitDy=0;entryX=0;entryY=1;entryDx=0;entryDy=0;labelBackgroundColor=default;strokeColor=default;align=center;verticalAlign=middle;fontFamily=Helvetica;fontSource=https%3A%2F%2Ffonts.googleapis.com%2Fcss%3Ffamily%3DArchitects%2BDaughter;fontSize=20;fontColor=default;endArrow=none;endFill=0;" parent="WNAg6DyZ-CmmunSY68zc-27" source="WNAg6DyZ-CmmunSY68zc-29" target="WNAg6DyZ-CmmunSY68zc-36" edge="1">
          <mxGeometry relative="1" as="geometry" />
        </mxCell>
        <mxCell id="WNAg6DyZ-CmmunSY68zc-38" value="&lt;font style=&quot;font-size: 10px;&quot;&gt;ID_Videogioco&lt;/font&gt;" style="text;html=1;strokeColor=none;fillColor=none;align=center;verticalAlign=middle;whiteSpace=wrap;rounded=0;fontSize=20;fontFamily=Helvetica;fontColor=default;" parent="WNAg6DyZ-CmmunSY68zc-27" vertex="1">
          <mxGeometry x="80.47" width="65.3" height="20" as="geometry" />
        </mxCell>
        <mxCell id="WNAg6DyZ-CmmunSY68zc-39" value="&lt;span style=&quot;font-size: 10px;&quot;&gt;Commento&lt;/span&gt;" style="text;html=1;strokeColor=none;fillColor=none;align=center;verticalAlign=middle;whiteSpace=wrap;rounded=0;fontSize=20;fontFamily=Helvetica;fontColor=default;" parent="WNAg6DyZ-CmmunSY68zc-27" vertex="1">
          <mxGeometry x="287.81" width="54.37" height="20" as="geometry" />
        </mxCell>
        <mxCell id="WNAg6DyZ-CmmunSY68zc-40" value="&lt;span style=&quot;font-size: 10px;&quot;&gt;Punteggio&lt;/span&gt;" style="text;html=1;strokeColor=none;fillColor=none;align=center;verticalAlign=middle;whiteSpace=wrap;rounded=0;fontSize=20;fontFamily=Helvetica;fontColor=default;" parent="WNAg6DyZ-CmmunSY68zc-27" vertex="1">
          <mxGeometry x="210.62" y="10" width="45" height="20" as="geometry" />
        </mxCell>
        <mxCell id="WNAg6DyZ-CmmunSY68zc-41" value="" style="group" parent="WNAg6DyZ-CmmunSY68zc-27" vertex="1" connectable="0">
          <mxGeometry x="58.120000000000005" y="20" width="40" height="30" as="geometry" />
        </mxCell>
        <mxCell id="WNAg6DyZ-CmmunSY68zc-42" value="" style="ellipse;whiteSpace=wrap;html=1;aspect=fixed;rounded=0;hachureGap=4;strokeColor=default;align=center;verticalAlign=middle;fontFamily=Helvetica;fontSize=20;fontColor=default;fillColor=#000000;" parent="WNAg6DyZ-CmmunSY68zc-41" vertex="1">
          <mxGeometry x="2.5" y="20" width="10" height="10" as="geometry" />
        </mxCell>
        <mxCell id="WNAg6DyZ-CmmunSY68zc-43" value="&lt;font style=&quot;font-size: 10px;&quot;&gt;ID_Recensione&lt;/font&gt;" style="text;html=1;strokeColor=none;fillColor=none;align=center;verticalAlign=middle;whiteSpace=wrap;rounded=0;fontSize=20;fontFamily=Helvetica;fontColor=default;" parent="WNAg6DyZ-CmmunSY68zc-41" vertex="1">
          <mxGeometry x="-27.5" width="70" height="20" as="geometry" />
        </mxCell>
        <mxCell id="WNAg6DyZ-CmmunSY68zc-44" style="rounded=0;hachureGap=4;orthogonalLoop=1;jettySize=auto;html=1;exitX=0;exitY=0;exitDx=0;exitDy=0;entryX=1;entryY=1;entryDx=0;entryDy=0;fontFamily=Helvetica;fontSource=https%3A%2F%2Ffonts.googleapis.com%2Fcss%3Ffamily%3DArchitects%2BDaughter;fontSize=20;fontColor=default;endArrow=none;endFill=0;" parent="WNAg6DyZ-CmmunSY68zc-27" source="WNAg6DyZ-CmmunSY68zc-29" target="WNAg6DyZ-CmmunSY68zc-42" edge="1">
          <mxGeometry relative="1" as="geometry" />
        </mxCell>
        <mxCell id="WNAg6DyZ-CmmunSY68zc-45" value="&lt;font style=&quot;font-size: 10px;&quot;&gt;ID_Utente&lt;br&gt;&lt;/font&gt;" style="text;html=1;strokeColor=none;fillColor=none;align=center;verticalAlign=middle;whiteSpace=wrap;rounded=0;fontSize=20;fontFamily=Helvetica;fontColor=default;" parent="WNAg6DyZ-CmmunSY68zc-27" vertex="1">
          <mxGeometry x="21.880000000000003" y="65" width="49.06" height="20" as="geometry" />
        </mxCell>
        <mxCell id="WNAg6DyZ-CmmunSY68zc-46" value="" style="ellipse;whiteSpace=wrap;html=1;aspect=fixed;rounded=0;hachureGap=4;strokeColor=default;align=center;verticalAlign=middle;fontFamily=Helvetica;fontSize=20;fontColor=default;fillColor=#FFFFFF;" parent="WNAg6DyZ-CmmunSY68zc-27" vertex="1">
          <mxGeometry x="280" y="85" width="10" height="10" as="geometry" />
        </mxCell>
        <mxCell id="WNAg6DyZ-CmmunSY68zc-47" value="&lt;span style=&quot;font-size: 10px;&quot;&gt;DataRecensione&lt;/span&gt;" style="text;html=1;strokeColor=none;fillColor=none;align=center;verticalAlign=middle;whiteSpace=wrap;rounded=0;fontSize=20;fontFamily=Helvetica;fontColor=default;" parent="WNAg6DyZ-CmmunSY68zc-27" vertex="1">
          <mxGeometry x="246.25" y="65" width="77.5" height="20" as="geometry" />
        </mxCell>
        <mxCell id="WNAg6DyZ-CmmunSY68zc-48" value="&lt;font color=&quot;#ff8000&quot; style=&quot;font-size: 10px;&quot; face=&quot;Helvetica&quot;&gt;(1, N)&lt;/font&gt;" style="text;html=1;align=center;verticalAlign=middle;resizable=0;points=[];autosize=1;fontSize=20;fontFamily=Architects Daughter;" parent="WNAg6DyZ-CmmunSY68zc-27" vertex="1">
          <mxGeometry x="133" y="40" width="50" height="40" as="geometry" />
        </mxCell>
        <mxCell id="WNAg6DyZ-CmmunSY68zc-49" value="&lt;font color=&quot;#ff8000&quot; style=&quot;font-size: 10px;&quot; face=&quot;Helvetica&quot;&gt;(1, N)&lt;/font&gt;" style="text;html=1;align=center;verticalAlign=middle;resizable=0;points=[];autosize=1;fontSize=20;fontFamily=Architects Daughter;" parent="WNAg6DyZ-CmmunSY68zc-27" vertex="1">
          <mxGeometry x="163.13" y="95" width="50" height="40" as="geometry" />
        </mxCell>
        <mxCell id="WNAg6DyZ-CmmunSY68zc-50" value="" style="group" parent="1" vertex="1" connectable="0">
          <mxGeometry x="866" y="-832" width="376.25" height="135" as="geometry" />
        </mxCell>
        <mxCell id="WNAg6DyZ-CmmunSY68zc-51" style="rounded=0;hachureGap=4;orthogonalLoop=1;jettySize=auto;html=1;exitX=0.75;exitY=0;exitDx=0;exitDy=0;fontFamily=Helvetica;fontSource=https%3A%2F%2Ffonts.googleapis.com%2Fcss%3Ffamily%3DArchitects%2BDaughter;fontSize=20;fontColor=default;endArrow=none;endFill=0;" parent="WNAg6DyZ-CmmunSY68zc-50" source="WNAg6DyZ-CmmunSY68zc-52" target="WNAg6DyZ-CmmunSY68zc-63" edge="1">
          <mxGeometry relative="1" as="geometry">
            <mxPoint x="260" y="90" as="targetPoint" />
          </mxGeometry>
        </mxCell>
        <mxCell id="WNAg6DyZ-CmmunSY68zc-52" value="Ordine" style="whiteSpace=wrap;html=1;align=center;hachureGap=4;fontFamily=Helvetica;fontSize=20;rounded=0;" parent="WNAg6DyZ-CmmunSY68zc-50" vertex="1">
          <mxGeometry x="108.12" y="70" width="130" height="40" as="geometry" />
        </mxCell>
        <mxCell id="WNAg6DyZ-CmmunSY68zc-53" value="" style="ellipse;whiteSpace=wrap;html=1;aspect=fixed;rounded=0;hachureGap=4;strokeColor=default;align=center;verticalAlign=middle;fontFamily=Helvetica;fontSize=20;fontColor=default;fillColor=#FFFFFF;" parent="WNAg6DyZ-CmmunSY68zc-50" vertex="1">
          <mxGeometry x="108.12" y="20" width="10" height="10" as="geometry" />
        </mxCell>
        <mxCell id="WNAg6DyZ-CmmunSY68zc-54" style="edgeStyle=none;shape=connector;rounded=0;hachureGap=4;orthogonalLoop=1;jettySize=auto;html=1;exitX=0.25;exitY=0;exitDx=0;exitDy=0;entryX=1;entryY=1;entryDx=0;entryDy=0;labelBackgroundColor=default;strokeColor=default;align=center;verticalAlign=middle;fontFamily=Helvetica;fontSource=https%3A%2F%2Ffonts.googleapis.com%2Fcss%3Ffamily%3DArchitects%2BDaughter;fontSize=20;fontColor=default;endArrow=none;endFill=0;" parent="WNAg6DyZ-CmmunSY68zc-50" source="WNAg6DyZ-CmmunSY68zc-52" target="WNAg6DyZ-CmmunSY68zc-53" edge="1">
          <mxGeometry relative="1" as="geometry" />
        </mxCell>
        <mxCell id="WNAg6DyZ-CmmunSY68zc-55" value="" style="ellipse;whiteSpace=wrap;html=1;aspect=fixed;rounded=0;hachureGap=4;strokeColor=default;align=center;verticalAlign=middle;fontFamily=Helvetica;fontSize=20;fontColor=default;fillColor=#FFFFFF;" parent="WNAg6DyZ-CmmunSY68zc-50" vertex="1">
          <mxGeometry x="262.34000000000003" y="40" width="10" height="10" as="geometry" />
        </mxCell>
        <mxCell id="WNAg6DyZ-CmmunSY68zc-56" style="edgeStyle=none;shape=connector;rounded=0;hachureGap=4;orthogonalLoop=1;jettySize=auto;html=1;exitX=1;exitY=0;exitDx=0;exitDy=0;labelBackgroundColor=default;strokeColor=default;align=center;verticalAlign=middle;fontFamily=Helvetica;fontSource=https%3A%2F%2Ffonts.googleapis.com%2Fcss%3Ffamily%3DArchitects%2BDaughter;fontSize=20;fontColor=default;endArrow=none;endFill=0;" parent="WNAg6DyZ-CmmunSY68zc-50" source="WNAg6DyZ-CmmunSY68zc-52" target="WNAg6DyZ-CmmunSY68zc-55" edge="1">
          <mxGeometry relative="1" as="geometry">
            <mxPoint x="50" y="90" as="targetPoint" />
          </mxGeometry>
        </mxCell>
        <mxCell id="WNAg6DyZ-CmmunSY68zc-57" value="&lt;font style=&quot;font-size: 10px;&quot;&gt;DataAcquisto&lt;br&gt;&lt;/font&gt;" style="text;html=1;strokeColor=none;fillColor=none;align=center;verticalAlign=middle;whiteSpace=wrap;rounded=0;fontSize=20;fontFamily=Helvetica;fontColor=default;" parent="WNAg6DyZ-CmmunSY68zc-50" vertex="1">
          <mxGeometry x="80.93" width="64.37" height="20" as="geometry" />
        </mxCell>
        <mxCell id="WNAg6DyZ-CmmunSY68zc-58" value="" style="group" parent="WNAg6DyZ-CmmunSY68zc-50" vertex="1" connectable="0">
          <mxGeometry x="58.120000000000005" y="20" width="30" height="30" as="geometry" />
        </mxCell>
        <mxCell id="WNAg6DyZ-CmmunSY68zc-59" value="" style="ellipse;whiteSpace=wrap;html=1;aspect=fixed;rounded=0;hachureGap=4;strokeColor=default;align=center;verticalAlign=middle;fontFamily=Helvetica;fontSize=20;fontColor=default;fillColor=#000000;" parent="WNAg6DyZ-CmmunSY68zc-58" vertex="1">
          <mxGeometry x="2.5" y="20" width="10" height="10" as="geometry" />
        </mxCell>
        <mxCell id="WNAg6DyZ-CmmunSY68zc-60" value="&lt;font style=&quot;font-size: 10px;&quot;&gt;ID_Ordine&lt;/font&gt;" style="text;html=1;strokeColor=none;fillColor=none;align=center;verticalAlign=middle;whiteSpace=wrap;rounded=0;fontSize=20;fontFamily=Helvetica;fontColor=default;" parent="WNAg6DyZ-CmmunSY68zc-58" vertex="1">
          <mxGeometry x="-17.5" width="50" height="20" as="geometry" />
        </mxCell>
        <mxCell id="WNAg6DyZ-CmmunSY68zc-61" style="rounded=0;hachureGap=4;orthogonalLoop=1;jettySize=auto;html=1;exitX=0;exitY=0;exitDx=0;exitDy=0;entryX=1;entryY=1;entryDx=0;entryDy=0;fontFamily=Helvetica;fontSource=https%3A%2F%2Ffonts.googleapis.com%2Fcss%3Ffamily%3DArchitects%2BDaughter;fontSize=20;fontColor=default;endArrow=none;endFill=0;" parent="WNAg6DyZ-CmmunSY68zc-50" source="WNAg6DyZ-CmmunSY68zc-52" target="WNAg6DyZ-CmmunSY68zc-59" edge="1">
          <mxGeometry relative="1" as="geometry" />
        </mxCell>
        <mxCell id="WNAg6DyZ-CmmunSY68zc-62" value="&lt;font style=&quot;font-size: 10px;&quot;&gt;IDUtente&lt;br&gt;&lt;/font&gt;" style="text;html=1;strokeColor=none;fillColor=none;align=center;verticalAlign=middle;whiteSpace=wrap;rounded=0;fontSize=20;fontFamily=Helvetica;fontColor=default;" parent="WNAg6DyZ-CmmunSY68zc-50" vertex="1">
          <mxGeometry x="242.81000000000003" y="20" width="49.06" height="20" as="geometry" />
        </mxCell>
        <mxCell id="WNAg6DyZ-CmmunSY68zc-63" value="" style="ellipse;whiteSpace=wrap;html=1;aspect=fixed;rounded=0;hachureGap=4;strokeColor=default;align=center;verticalAlign=middle;fontFamily=Helvetica;fontSize=20;fontColor=default;fillColor=#FFFFFF;direction=south;dashed=1;" parent="WNAg6DyZ-CmmunSY68zc-50" vertex="1">
          <mxGeometry x="213.13" y="20" width="10" height="10" as="geometry" />
        </mxCell>
        <mxCell id="WNAg6DyZ-CmmunSY68zc-64" value="&lt;span style=&quot;font-size: 10px;&quot;&gt;PrezzoTotale&lt;/span&gt;" style="text;html=1;strokeColor=none;fillColor=none;align=center;verticalAlign=middle;whiteSpace=wrap;rounded=0;fontSize=20;fontFamily=Helvetica;fontColor=default;" parent="WNAg6DyZ-CmmunSY68zc-50" vertex="1">
          <mxGeometry x="187.82" width="60.62" height="20" as="geometry" />
        </mxCell>
        <mxCell id="WNAg6DyZ-CmmunSY68zc-65" value="&lt;font color=&quot;#ff8000&quot; style=&quot;font-size: 10px;&quot; face=&quot;Helvetica&quot;&gt;(1, N)&lt;/font&gt;" style="text;html=1;align=center;verticalAlign=middle;resizable=0;points=[];autosize=1;fontSize=20;fontFamily=Architects Daughter;" parent="WNAg6DyZ-CmmunSY68zc-50" vertex="1">
          <mxGeometry x="65.11999999999989" y="58" width="50" height="40" as="geometry" />
        </mxCell>
        <mxCell id="WNAg6DyZ-CmmunSY68zc-66" value="&lt;font color=&quot;#ff8000&quot; style=&quot;font-size: 10px;&quot; face=&quot;Helvetica&quot;&gt;(1, N)&lt;/font&gt;" style="text;html=1;align=center;verticalAlign=middle;resizable=0;points=[];autosize=1;fontSize=20;fontFamily=Architects Daughter;" parent="WNAg6DyZ-CmmunSY68zc-50" vertex="1">
          <mxGeometry x="163.12999999999988" y="95" width="50" height="40" as="geometry" />
        </mxCell>
        <mxCell id="WNAg6DyZ-CmmunSY68zc-67" value="Abbonamento" style="whiteSpace=wrap;html=1;align=center;hachureGap=4;fontFamily=Helvetica;fontSize=20;rounded=0;" parent="1" vertex="1">
          <mxGeometry x="120.12" y="-190" width="130" height="40" as="geometry" />
        </mxCell>
        <mxCell id="WNAg6DyZ-CmmunSY68zc-68" value="" style="ellipse;whiteSpace=wrap;html=1;aspect=fixed;rounded=0;hachureGap=4;strokeColor=default;align=center;verticalAlign=middle;fontFamily=Helvetica;fontSize=20;fontColor=default;fillColor=#FFFFFF;" parent="1" vertex="1">
          <mxGeometry x="120.12" y="-240" width="10" height="10" as="geometry" />
        </mxCell>
        <mxCell id="WNAg6DyZ-CmmunSY68zc-69" style="edgeStyle=none;shape=connector;rounded=0;hachureGap=4;orthogonalLoop=1;jettySize=auto;html=1;exitX=0.25;exitY=0;exitDx=0;exitDy=0;entryX=1;entryY=1;entryDx=0;entryDy=0;labelBackgroundColor=default;strokeColor=default;align=center;verticalAlign=middle;fontFamily=Helvetica;fontSource=https%3A%2F%2Ffonts.googleapis.com%2Fcss%3Ffamily%3DArchitects%2BDaughter;fontSize=20;fontColor=default;endArrow=none;endFill=0;" parent="1" source="WNAg6DyZ-CmmunSY68zc-67" target="WNAg6DyZ-CmmunSY68zc-68" edge="1">
          <mxGeometry relative="1" as="geometry" />
        </mxCell>
        <mxCell id="WNAg6DyZ-CmmunSY68zc-70" value="" style="ellipse;whiteSpace=wrap;html=1;aspect=fixed;rounded=0;hachureGap=4;strokeColor=default;align=center;verticalAlign=middle;fontFamily=Helvetica;fontSize=20;fontColor=default;fillColor=#FFFFFF;" parent="1" vertex="1">
          <mxGeometry x="70.12" y="-175" width="10" height="10" as="geometry" />
        </mxCell>
        <mxCell id="WNAg6DyZ-CmmunSY68zc-71" style="edgeStyle=none;shape=connector;rounded=0;hachureGap=4;orthogonalLoop=1;jettySize=auto;html=1;exitX=0;exitY=0.5;exitDx=0;exitDy=0;labelBackgroundColor=default;strokeColor=default;align=center;verticalAlign=middle;fontFamily=Helvetica;fontSource=https%3A%2F%2Ffonts.googleapis.com%2Fcss%3Ffamily%3DArchitects%2BDaughter;fontSize=20;fontColor=default;endArrow=none;endFill=0;" parent="1" source="WNAg6DyZ-CmmunSY68zc-67" target="WNAg6DyZ-CmmunSY68zc-70" edge="1">
          <mxGeometry relative="1" as="geometry" />
        </mxCell>
        <mxCell id="WNAg6DyZ-CmmunSY68zc-72" value="&lt;font style=&quot;font-size: 10px;&quot;&gt;Tipologia&lt;/font&gt;" style="text;html=1;strokeColor=none;fillColor=none;align=center;verticalAlign=middle;whiteSpace=wrap;rounded=0;fontSize=20;fontFamily=Helvetica;fontColor=default;" parent="1" vertex="1">
          <mxGeometry x="105.58000000000001" y="-260" width="39.07" height="20" as="geometry" />
        </mxCell>
        <mxCell id="WNAg6DyZ-CmmunSY68zc-73" value="&lt;span style=&quot;font-size: 10px;&quot;&gt;CostoMensile&lt;/span&gt;" style="text;html=1;strokeColor=none;fillColor=none;align=center;verticalAlign=middle;whiteSpace=wrap;rounded=0;fontSize=20;fontFamily=Helvetica;fontColor=default;" parent="1" vertex="1">
          <mxGeometry x="45.58000000000001" y="-195" width="64.07" height="20" as="geometry" />
        </mxCell>
        <mxCell id="WNAg6DyZ-CmmunSY68zc-74" value="" style="group" parent="1" vertex="1" connectable="0">
          <mxGeometry x="70.12" y="-240" width="15" height="30" as="geometry" />
        </mxCell>
        <mxCell id="WNAg6DyZ-CmmunSY68zc-75" value="" style="ellipse;whiteSpace=wrap;html=1;aspect=fixed;rounded=0;hachureGap=4;strokeColor=default;align=center;verticalAlign=middle;fontFamily=Helvetica;fontSize=20;fontColor=default;fillColor=#000000;" parent="WNAg6DyZ-CmmunSY68zc-74" vertex="1">
          <mxGeometry x="2.5" y="20" width="10" height="10" as="geometry" />
        </mxCell>
        <mxCell id="WNAg6DyZ-CmmunSY68zc-76" value="&lt;font style=&quot;font-size: 10px;&quot;&gt;ID_Abbonamento&lt;/font&gt;" style="text;html=1;strokeColor=none;fillColor=none;align=center;verticalAlign=middle;whiteSpace=wrap;rounded=0;fontSize=20;fontFamily=Helvetica;fontColor=default;" parent="WNAg6DyZ-CmmunSY68zc-74" vertex="1">
          <mxGeometry x="-35" width="85" height="20" as="geometry" />
        </mxCell>
        <mxCell id="WNAg6DyZ-CmmunSY68zc-77" style="rounded=0;hachureGap=4;orthogonalLoop=1;jettySize=auto;html=1;exitX=0;exitY=0;exitDx=0;exitDy=0;entryX=1;entryY=1;entryDx=0;entryDy=0;fontFamily=Helvetica;fontSource=https%3A%2F%2Ffonts.googleapis.com%2Fcss%3Ffamily%3DArchitects%2BDaughter;fontSize=20;fontColor=default;endArrow=none;endFill=0;" parent="1" source="WNAg6DyZ-CmmunSY68zc-67" target="WNAg6DyZ-CmmunSY68zc-75" edge="1">
          <mxGeometry relative="1" as="geometry" />
        </mxCell>
        <mxCell id="WNAg6DyZ-CmmunSY68zc-78" value="&lt;font color=&quot;#ff8000&quot; style=&quot;font-size: 10px;&quot; face=&quot;Helvetica&quot;&gt;(1, N)&lt;/font&gt;" style="text;html=1;align=center;verticalAlign=middle;resizable=0;points=[];autosize=1;fontSize=20;fontFamily=Architects Daughter;" parent="1" vertex="1">
          <mxGeometry x="175.12999999999997" y="-220" width="50" height="40" as="geometry" />
        </mxCell>
        <mxCell id="WNAg6DyZ-CmmunSY68zc-79" value="&lt;font color=&quot;#ff8000&quot; style=&quot;font-size: 10px;&quot; face=&quot;Helvetica&quot;&gt;(1, N)&lt;/font&gt;" style="text;html=1;align=center;verticalAlign=middle;resizable=0;points=[];autosize=1;fontSize=20;fontFamily=Architects Daughter;" parent="1" vertex="1">
          <mxGeometry x="174.11999999999998" y="-167" width="50" height="40" as="geometry" />
        </mxCell>
        <mxCell id="WNAg6DyZ-CmmunSY68zc-80" value="" style="group" parent="1" vertex="1" connectable="0">
          <mxGeometry x="616" y="-810" width="193.11999999999995" height="105" as="geometry" />
        </mxCell>
        <mxCell id="WNAg6DyZ-CmmunSY68zc-81" value="ACQUISTO" style="shape=rhombus;perimeter=rhombusPerimeter;whiteSpace=wrap;html=1;align=center;hachureGap=4;strokeColor=default;verticalAlign=middle;fontFamily=Helvetica;fontSource=https%3A%2F%2Ffonts.googleapis.com%2Fcss%3Ffamily%3DArchitects%2BDaughter;fontSize=20;fontColor=default;fillColor=default;" parent="WNAg6DyZ-CmmunSY68zc-80" vertex="1">
          <mxGeometry x="26.560000000000002" y="30" width="140" height="75" as="geometry" />
        </mxCell>
        <mxCell id="WNAg6DyZ-CmmunSY68zc-88" value="&lt;font color=&quot;#ff8000&quot; style=&quot;font-size: 15px;&quot; face=&quot;Helvetica&quot;&gt;1&lt;/font&gt;" style="text;html=1;align=center;verticalAlign=middle;resizable=0;points=[];autosize=1;fontSize=20;fontFamily=Architects Daughter;" parent="WNAg6DyZ-CmmunSY68zc-80" vertex="1">
          <mxGeometry x="16.560000000000002" y="32.5" width="30" height="40" as="geometry" />
        </mxCell>
        <mxCell id="WNAg6DyZ-CmmunSY68zc-89" value="&lt;font color=&quot;#ff8000&quot; style=&quot;font-size: 15px;&quot; face=&quot;Helvetica&quot;&gt;N&lt;br&gt;&lt;/font&gt;" style="text;html=1;align=center;verticalAlign=middle;resizable=0;points=[];autosize=1;fontSize=20;fontFamily=Architects Daughter;" parent="WNAg6DyZ-CmmunSY68zc-80" vertex="1">
          <mxGeometry x="146.55999999999995" y="32.5" width="30" height="40" as="geometry" />
        </mxCell>
        <mxCell id="WNAg6DyZ-CmmunSY68zc-90" value="" style="group" parent="1" vertex="1" connectable="0">
          <mxGeometry x="909" y="-690" width="248.28" height="180" as="geometry" />
        </mxCell>
        <mxCell id="WNAg6DyZ-CmmunSY68zc-93" value="COMPOSIZIONE" style="shape=rhombus;perimeter=rhombusPerimeter;whiteSpace=wrap;html=1;align=center;hachureGap=4;strokeColor=default;verticalAlign=middle;fontFamily=Helvetica;fontSource=https%3A%2F%2Ffonts.googleapis.com%2Fcss%3Ffamily%3DArchitects%2BDaughter;fontSize=20;fontColor=default;fillColor=default;" parent="WNAg6DyZ-CmmunSY68zc-90" vertex="1">
          <mxGeometry x="37.29460995134199" y="40" width="185.10908805525034" height="120" as="geometry" />
        </mxCell>
        <mxCell id="WNAg6DyZ-CmmunSY68zc-98" value="&lt;font color=&quot;#ff8000&quot; style=&quot;font-size: 15px;&quot; face=&quot;Helvetica&quot;&gt;1&lt;br&gt;&lt;/font&gt;" style="text;html=1;align=center;verticalAlign=middle;resizable=0;points=[];autosize=1;fontSize=20;fontFamily=Architects Daughter;" parent="WNAg6DyZ-CmmunSY68zc-90" vertex="1">
          <mxGeometry x="137" y="14.779999999999973" width="30" height="40" as="geometry" />
        </mxCell>
        <mxCell id="WNAg6DyZ-CmmunSY68zc-99" value="&lt;font color=&quot;#ff8000&quot; style=&quot;font-size: 15px;&quot; face=&quot;Helvetica&quot;&gt;N&lt;br&gt;&lt;/font&gt;" style="text;html=1;align=center;verticalAlign=middle;resizable=0;points=[];autosize=1;fontSize=20;fontFamily=Architects Daughter;" parent="WNAg6DyZ-CmmunSY68zc-90" vertex="1">
          <mxGeometry x="137" y="140" width="30" height="40" as="geometry" />
        </mxCell>
        <mxCell id="WNAg6DyZ-CmmunSY68zc-100" value="" style="group" parent="1" vertex="1" connectable="0">
          <mxGeometry x="440" y="-660" width="234.83999999999997" height="140" as="geometry" />
        </mxCell>
        <mxCell id="WNAg6DyZ-CmmunSY68zc-101" value="VALUTAZIONE" style="shape=rhombus;perimeter=rhombusPerimeter;whiteSpace=wrap;html=1;align=center;hachureGap=4;strokeColor=default;verticalAlign=middle;fontFamily=Helvetica;fontSource=https%3A%2F%2Ffonts.googleapis.com%2Fcss%3Ffamily%3DArchitects%2BDaughter;fontSize=20;fontColor=default;fillColor=default;" parent="WNAg6DyZ-CmmunSY68zc-100" vertex="1">
          <mxGeometry x="26.560000000000002" y="30" width="170" height="90" as="geometry" />
        </mxCell>
        <mxCell id="WNAg6DyZ-CmmunSY68zc-108" value="&lt;font color=&quot;#ff8000&quot; style=&quot;font-size: 15px;&quot; face=&quot;Helvetica&quot;&gt;1&lt;/font&gt;" style="text;html=1;align=center;verticalAlign=middle;resizable=0;points=[];autosize=1;fontSize=20;fontFamily=Architects Daughter;" parent="WNAg6DyZ-CmmunSY68zc-100" vertex="1">
          <mxGeometry x="16.559999999999945" y="40" width="30" height="40" as="geometry" />
        </mxCell>
        <mxCell id="WNAg6DyZ-CmmunSY68zc-109" value="&lt;font color=&quot;#ff8000&quot; style=&quot;font-size: 15px;&quot; face=&quot;Helvetica&quot;&gt;N&lt;/font&gt;" style="text;html=1;align=center;verticalAlign=middle;resizable=0;points=[];autosize=1;fontSize=20;fontFamily=Architects Daughter;" parent="WNAg6DyZ-CmmunSY68zc-100" vertex="1">
          <mxGeometry x="81" y="103" width="30" height="40" as="geometry" />
        </mxCell>
        <mxCell id="WNAg6DyZ-CmmunSY68zc-110" value="" style="group" parent="1" vertex="1" connectable="0">
          <mxGeometry x="657.28" y="-350" width="251.71999999999997" height="120" as="geometry" />
        </mxCell>
        <mxCell id="WNAg6DyZ-CmmunSY68zc-111" value="ASSOCIAZIONE" style="shape=rhombus;perimeter=rhombusPerimeter;whiteSpace=wrap;html=1;align=center;hachureGap=4;strokeColor=default;verticalAlign=middle;fontFamily=Helvetica;fontSource=https%3A%2F%2Ffonts.googleapis.com%2Fcss%3Ffamily%3DArchitects%2BDaughter;fontSize=20;fontColor=default;fillColor=default;" parent="WNAg6DyZ-CmmunSY68zc-110" vertex="1">
          <mxGeometry x="30" y="30" width="183.44" height="90" as="geometry" />
        </mxCell>
        <mxCell id="WNAg6DyZ-CmmunSY68zc-118" value="&lt;font color=&quot;#ff8000&quot; style=&quot;font-size: 15px;&quot; face=&quot;Helvetica&quot;&gt;1&lt;/font&gt;" style="text;html=1;align=center;verticalAlign=middle;resizable=0;points=[];autosize=1;fontSize=20;fontFamily=Architects Daughter;" parent="WNAg6DyZ-CmmunSY68zc-110" vertex="1">
          <mxGeometry x="20" y="40" width="30" height="40" as="geometry" />
        </mxCell>
        <mxCell id="WNAg6DyZ-CmmunSY68zc-119" value="&lt;font color=&quot;#ff8000&quot; style=&quot;font-size: 15px;&quot; face=&quot;Helvetica&quot;&gt;N&lt;br&gt;&lt;/font&gt;" style="text;html=1;align=center;verticalAlign=middle;resizable=0;points=[];autosize=1;fontSize=20;fontFamily=Architects Daughter;" parent="WNAg6DyZ-CmmunSY68zc-110" vertex="1">
          <mxGeometry x="193.43999999999994" y="40" width="30" height="40" as="geometry" />
        </mxCell>
        <mxCell id="WNAg6DyZ-CmmunSY68zc-120" value="" style="group" parent="1" vertex="1" connectable="0">
          <mxGeometry x="1250" y="-472" width="221.55999999999995" height="132" as="geometry" />
        </mxCell>
        <mxCell id="WNAg6DyZ-CmmunSY68zc-121" value="VENDITA" style="shape=rhombus;perimeter=rhombusPerimeter;whiteSpace=wrap;html=1;align=center;hachureGap=4;strokeColor=default;verticalAlign=middle;fontFamily=Helvetica;fontSource=https%3A%2F%2Ffonts.googleapis.com%2Fcss%3Ffamily%3DArchitects%2BDaughter;fontSize=20;fontColor=default;fillColor=default;" parent="WNAg6DyZ-CmmunSY68zc-120" vertex="1">
          <mxGeometry x="41.56" y="30" width="140" height="75" as="geometry" />
        </mxCell>
        <mxCell id="WNAg6DyZ-CmmunSY68zc-128" value="&lt;font color=&quot;#ff8000&quot; style=&quot;font-size: 15px;&quot; face=&quot;Helvetica&quot;&gt;1&lt;/font&gt;" style="text;html=1;align=center;verticalAlign=middle;resizable=0;points=[];autosize=1;fontSize=20;fontFamily=Architects Daughter;" parent="WNAg6DyZ-CmmunSY68zc-120" vertex="1">
          <mxGeometry x="110" y="92" width="30" height="40" as="geometry" />
        </mxCell>
        <mxCell id="WNAg6DyZ-CmmunSY68zc-129" value="&lt;font color=&quot;#ff8000&quot; style=&quot;font-size: 15px;&quot; face=&quot;Helvetica&quot;&gt;N&lt;br&gt;&lt;/font&gt;" style="text;html=1;align=center;verticalAlign=middle;resizable=0;points=[];autosize=1;fontSize=20;fontFamily=Architects Daughter;" parent="WNAg6DyZ-CmmunSY68zc-120" vertex="1">
          <mxGeometry x="31.559999999999945" y="32" width="30" height="40" as="geometry" />
        </mxCell>
        <mxCell id="WNAg6DyZ-CmmunSY68zc-130" value="" style="group" parent="1" vertex="1" connectable="0">
          <mxGeometry x="43" y="-530" width="296.72" height="160" as="geometry" />
        </mxCell>
        <mxCell id="WNAg6DyZ-CmmunSY68zc-131" value="SOTTOSCRIZIONE" style="shape=rhombus;perimeter=rhombusPerimeter;whiteSpace=wrap;html=1;align=center;hachureGap=4;strokeColor=default;verticalAlign=middle;fontFamily=Helvetica;fontSource=https%3A%2F%2Ffonts.googleapis.com%2Fcss%3Ffamily%3DArchitects%2BDaughter;fontSize=20;fontColor=default;fillColor=default;" parent="WNAg6DyZ-CmmunSY68zc-130" vertex="1">
          <mxGeometry x="30" y="30" width="223.44" height="100" as="geometry" />
        </mxCell>
        <mxCell id="WNAg6DyZ-CmmunSY68zc-138" value="" style="ellipse;whiteSpace=wrap;html=1;aspect=fixed;rounded=0;hachureGap=4;strokeColor=default;align=center;verticalAlign=middle;fontFamily=Helvetica;fontSize=20;fontColor=default;fillColor=#FFFFFF;" parent="WNAg6DyZ-CmmunSY68zc-130" vertex="1">
          <mxGeometry x="30" y="20" width="10" height="10" as="geometry" />
        </mxCell>
        <mxCell id="WNAg6DyZ-CmmunSY68zc-139" style="edgeStyle=none;shape=connector;rounded=0;hachureGap=4;orthogonalLoop=1;jettySize=auto;html=1;labelBackgroundColor=default;strokeColor=default;align=center;verticalAlign=middle;fontFamily=Helvetica;fontSource=https%3A%2F%2Ffonts.googleapis.com%2Fcss%3Ffamily%3DArchitects%2BDaughter;fontSize=20;fontColor=default;endArrow=none;endFill=0;" parent="WNAg6DyZ-CmmunSY68zc-130" source="WNAg6DyZ-CmmunSY68zc-131" target="WNAg6DyZ-CmmunSY68zc-138" edge="1">
          <mxGeometry relative="1" as="geometry" />
        </mxCell>
        <mxCell id="WNAg6DyZ-CmmunSY68zc-140" value="" style="ellipse;whiteSpace=wrap;html=1;aspect=fixed;rounded=0;hachureGap=4;strokeColor=default;align=center;verticalAlign=middle;fontFamily=Helvetica;fontSize=20;fontColor=default;fillColor=#FFFFFF;" parent="WNAg6DyZ-CmmunSY68zc-130" vertex="1">
          <mxGeometry x="243.44000000000005" y="20" width="10" height="10" as="geometry" />
        </mxCell>
        <mxCell id="WNAg6DyZ-CmmunSY68zc-141" style="edgeStyle=none;shape=connector;rounded=0;hachureGap=4;orthogonalLoop=1;jettySize=auto;html=1;labelBackgroundColor=default;strokeColor=default;align=center;verticalAlign=middle;fontFamily=Helvetica;fontSource=https%3A%2F%2Ffonts.googleapis.com%2Fcss%3Ffamily%3DArchitects%2BDaughter;fontSize=20;fontColor=default;endArrow=none;endFill=0;" parent="WNAg6DyZ-CmmunSY68zc-130" source="WNAg6DyZ-CmmunSY68zc-131" target="WNAg6DyZ-CmmunSY68zc-140" edge="1">
          <mxGeometry relative="1" as="geometry">
            <mxPoint x="253.44000000000005" y="140" as="targetPoint" />
          </mxGeometry>
        </mxCell>
        <mxCell id="WNAg6DyZ-CmmunSY68zc-144" value="&lt;font color=&quot;#ff8000&quot; style=&quot;font-size: 15px;&quot; face=&quot;Helvetica&quot;&gt;1&lt;/font&gt;" style="text;html=1;align=center;verticalAlign=middle;resizable=0;points=[];autosize=1;fontSize=20;fontFamily=Architects Daughter;" parent="WNAg6DyZ-CmmunSY68zc-130" vertex="1">
          <mxGeometry x="106.99999999999994" y="5" width="30" height="40" as="geometry" />
        </mxCell>
        <mxCell id="WNAg6DyZ-CmmunSY68zc-145" value="&lt;font color=&quot;#ff8000&quot; style=&quot;font-size: 15px;&quot; face=&quot;Helvetica&quot;&gt;N&lt;/font&gt;" style="text;html=1;align=center;verticalAlign=middle;resizable=0;points=[];autosize=1;fontSize=20;fontFamily=Architects Daughter;" parent="WNAg6DyZ-CmmunSY68zc-130" vertex="1">
          <mxGeometry x="107" y="120" width="30" height="40" as="geometry" />
        </mxCell>
        <mxCell id="WNAg6DyZ-CmmunSY68zc-142" value="&lt;span style=&quot;font-size: 10px;&quot;&gt;DataInizio&lt;/span&gt;" style="text;html=1;strokeColor=none;fillColor=none;align=center;verticalAlign=middle;whiteSpace=wrap;rounded=0;fontSize=20;fontFamily=Helvetica;fontColor=default;" parent="WNAg6DyZ-CmmunSY68zc-130" vertex="1">
          <mxGeometry x="10" width="50" height="20" as="geometry" />
        </mxCell>
        <mxCell id="WNAg6DyZ-CmmunSY68zc-143" value="&lt;span style=&quot;font-size: 10px;&quot;&gt;DataFine&lt;/span&gt;" style="text;html=1;strokeColor=none;fillColor=none;align=center;verticalAlign=middle;whiteSpace=wrap;rounded=0;fontSize=20;fontFamily=Helvetica;fontColor=default;" parent="WNAg6DyZ-CmmunSY68zc-130" vertex="1">
          <mxGeometry x="226.8800000000001" width="43.12" height="20" as="geometry" />
        </mxCell>
        <mxCell id="WNAg6DyZ-CmmunSY68zc-146" style="edgeStyle=orthogonalEdgeStyle;shape=connector;rounded=0;hachureGap=4;orthogonalLoop=1;jettySize=auto;html=1;entryX=0;entryY=0.5;entryDx=0;entryDy=0;labelBackgroundColor=default;strokeColor=default;align=center;verticalAlign=middle;fontFamily=Helvetica;fontSource=https%3A%2F%2Ffonts.googleapis.com%2Fcss%3Ffamily%3DArchitects%2BDaughter;fontSize=20;fontColor=default;endArrow=none;endFill=0;" parent="1" target="WNAg6DyZ-CmmunSY68zc-81" edge="1">
          <mxGeometry relative="1" as="geometry">
            <mxPoint x="220" y="-720" as="sourcePoint" />
            <mxPoint x="456.55999999999995" y="-743.5" as="targetPoint" />
            <Array as="points">
              <mxPoint x="220" y="-680" />
              <mxPoint x="440" y="-680" />
              <mxPoint x="440" y="-742" />
            </Array>
          </mxGeometry>
        </mxCell>
        <mxCell id="WNAg6DyZ-CmmunSY68zc-147" style="edgeStyle=orthogonalEdgeStyle;shape=connector;rounded=0;hachureGap=4;orthogonalLoop=1;jettySize=auto;html=1;exitX=1;exitY=0.5;exitDx=0;exitDy=0;entryX=0;entryY=0.5;entryDx=0;entryDy=0;labelBackgroundColor=default;strokeColor=default;align=center;verticalAlign=middle;fontFamily=Helvetica;fontSource=https%3A%2F%2Ffonts.googleapis.com%2Fcss%3Ffamily%3DArchitects%2BDaughter;fontSize=20;fontColor=default;endArrow=none;endFill=0;" parent="1" source="WNAg6DyZ-CmmunSY68zc-81" target="WNAg6DyZ-CmmunSY68zc-52" edge="1">
          <mxGeometry relative="1" as="geometry" />
        </mxCell>
        <mxCell id="WNAg6DyZ-CmmunSY68zc-148" style="edgeStyle=orthogonalEdgeStyle;shape=connector;rounded=0;hachureGap=4;orthogonalLoop=1;jettySize=auto;html=1;exitX=0.5;exitY=1;exitDx=0;exitDy=0;entryX=0.5;entryY=0;entryDx=0;entryDy=0;labelBackgroundColor=default;strokeColor=default;align=center;verticalAlign=middle;fontFamily=Helvetica;fontSource=https%3A%2F%2Ffonts.googleapis.com%2Fcss%3Ffamily%3DArchitects%2BDaughter;fontSize=20;fontColor=default;endArrow=none;endFill=0;" parent="1" source="WNAg6DyZ-CmmunSY68zc-52" target="WNAg6DyZ-CmmunSY68zc-93" edge="1">
          <mxGeometry relative="1" as="geometry" />
        </mxCell>
        <mxCell id="WNAg6DyZ-CmmunSY68zc-149" style="edgeStyle=orthogonalEdgeStyle;shape=connector;rounded=0;hachureGap=4;orthogonalLoop=1;jettySize=auto;html=1;exitX=0.5;exitY=1;exitDx=0;exitDy=0;entryX=0.5;entryY=0;entryDx=0;entryDy=0;labelBackgroundColor=default;strokeColor=default;align=center;verticalAlign=middle;fontFamily=Helvetica;fontSource=https%3A%2F%2Ffonts.googleapis.com%2Fcss%3Ffamily%3DArchitects%2BDaughter;fontSize=20;fontColor=default;endArrow=none;endFill=0;" parent="1" source="WNAg6DyZ-CmmunSY68zc-93" target="WNAg6DyZ-CmmunSY68zc-2" edge="1">
          <mxGeometry relative="1" as="geometry" />
        </mxCell>
        <mxCell id="WNAg6DyZ-CmmunSY68zc-150" style="edgeStyle=orthogonalEdgeStyle;shape=connector;rounded=0;hachureGap=4;orthogonalLoop=1;jettySize=auto;html=1;exitX=0.611;exitY=1.004;exitDx=0;exitDy=0;entryX=0;entryY=0.5;entryDx=0;entryDy=0;labelBackgroundColor=default;strokeColor=default;align=center;verticalAlign=middle;fontFamily=Helvetica;fontSource=https%3A%2F%2Ffonts.googleapis.com%2Fcss%3Ffamily%3DArchitects%2BDaughter;fontSize=20;fontColor=default;endArrow=none;endFill=0;exitPerimeter=0;" parent="1" source="WNAg6DyZ-CmmunSY68zc-212" target="WNAg6DyZ-CmmunSY68zc-101" edge="1">
          <mxGeometry relative="1" as="geometry" />
        </mxCell>
        <mxCell id="WNAg6DyZ-CmmunSY68zc-151" style="edgeStyle=orthogonalEdgeStyle;shape=connector;rounded=0;hachureGap=4;orthogonalLoop=1;jettySize=auto;html=1;exitX=0.5;exitY=1;exitDx=0;exitDy=0;entryX=0.5;entryY=0;entryDx=0;entryDy=0;labelBackgroundColor=default;strokeColor=default;align=center;verticalAlign=middle;fontFamily=Helvetica;fontSource=https%3A%2F%2Ffonts.googleapis.com%2Fcss%3Ffamily%3DArchitects%2BDaughter;fontSize=20;fontColor=default;endArrow=none;endFill=0;" parent="1" source="WNAg6DyZ-CmmunSY68zc-101" target="WNAg6DyZ-CmmunSY68zc-29" edge="1">
          <mxGeometry relative="1" as="geometry" />
        </mxCell>
        <mxCell id="WNAg6DyZ-CmmunSY68zc-152" style="edgeStyle=orthogonalEdgeStyle;shape=connector;rounded=0;hachureGap=4;orthogonalLoop=1;jettySize=auto;html=1;exitX=0.5;exitY=1;exitDx=0;exitDy=0;entryX=0;entryY=0.5;entryDx=0;entryDy=0;labelBackgroundColor=default;strokeColor=default;align=center;verticalAlign=middle;fontFamily=Helvetica;fontSource=https%3A%2F%2Ffonts.googleapis.com%2Fcss%3Ffamily%3DArchitects%2BDaughter;fontSize=20;fontColor=default;endArrow=none;endFill=0;" parent="1" source="WNAg6DyZ-CmmunSY68zc-29" target="WNAg6DyZ-CmmunSY68zc-111" edge="1">
          <mxGeometry relative="1" as="geometry" />
        </mxCell>
        <mxCell id="WNAg6DyZ-CmmunSY68zc-153" style="edgeStyle=orthogonalEdgeStyle;shape=connector;rounded=0;hachureGap=4;orthogonalLoop=1;jettySize=auto;html=1;exitX=1;exitY=0.5;exitDx=0;exitDy=0;entryX=0.25;entryY=1;entryDx=0;entryDy=0;labelBackgroundColor=default;strokeColor=default;align=center;verticalAlign=middle;fontFamily=Helvetica;fontSource=https%3A%2F%2Ffonts.googleapis.com%2Fcss%3Ffamily%3DArchitects%2BDaughter;fontSize=20;fontColor=default;endArrow=none;endFill=0;" parent="1" source="WNAg6DyZ-CmmunSY68zc-111" target="WNAg6DyZ-CmmunSY68zc-2" edge="1">
          <mxGeometry relative="1" as="geometry" />
        </mxCell>
        <mxCell id="WNAg6DyZ-CmmunSY68zc-154" style="edgeStyle=orthogonalEdgeStyle;shape=connector;rounded=0;hachureGap=4;orthogonalLoop=1;jettySize=auto;html=1;exitX=0.5;exitY=1;exitDx=0;exitDy=0;entryX=0.5;entryY=0;entryDx=0;entryDy=0;labelBackgroundColor=default;strokeColor=default;align=center;verticalAlign=middle;fontFamily=Helvetica;fontSource=https%3A%2F%2Ffonts.googleapis.com%2Fcss%3Ffamily%3DArchitects%2BDaughter;fontSize=20;fontColor=default;endArrow=none;endFill=0;" parent="1" source="WNAg6DyZ-CmmunSY68zc-212" target="WNAg6DyZ-CmmunSY68zc-131" edge="1">
          <mxGeometry relative="1" as="geometry" />
        </mxCell>
        <mxCell id="WNAg6DyZ-CmmunSY68zc-155" style="edgeStyle=orthogonalEdgeStyle;shape=connector;rounded=0;hachureGap=4;orthogonalLoop=1;jettySize=auto;html=1;exitX=0.5;exitY=1;exitDx=0;exitDy=0;entryX=0.5;entryY=0;entryDx=0;entryDy=0;labelBackgroundColor=default;strokeColor=default;align=center;verticalAlign=middle;fontFamily=Helvetica;fontSource=https%3A%2F%2Ffonts.googleapis.com%2Fcss%3Ffamily%3DArchitects%2BDaughter;fontSize=20;fontColor=default;endArrow=none;endFill=0;" parent="1" source="WNAg6DyZ-CmmunSY68zc-131" target="WNAg6DyZ-CmmunSY68zc-67" edge="1">
          <mxGeometry relative="1" as="geometry" />
        </mxCell>
        <mxCell id="WNAg6DyZ-CmmunSY68zc-156" value="" style="group" parent="1" vertex="1" connectable="0">
          <mxGeometry x="412.28" y="-190" width="245" height="110" as="geometry" />
        </mxCell>
        <mxCell id="WNAg6DyZ-CmmunSY68zc-157" value="INCLUSIONE" style="shape=rhombus;perimeter=rhombusPerimeter;whiteSpace=wrap;html=1;align=center;hachureGap=4;strokeColor=default;verticalAlign=middle;fontFamily=Helvetica;fontSource=https%3A%2F%2Ffonts.googleapis.com%2Fcss%3Ffamily%3DArchitects%2BDaughter;fontSize=20;fontColor=default;fillColor=default;" parent="WNAg6DyZ-CmmunSY68zc-156" vertex="1">
          <mxGeometry x="41.56" y="30" width="168.44" height="80" as="geometry" />
        </mxCell>
        <mxCell id="WNAg6DyZ-CmmunSY68zc-164" value="&lt;font color=&quot;#ff8000&quot; style=&quot;font-size: 15px;&quot; face=&quot;Helvetica&quot;&gt;1&lt;/font&gt;" style="text;html=1;align=center;verticalAlign=middle;resizable=0;points=[];autosize=1;fontSize=20;fontFamily=Architects Daughter;" parent="WNAg6DyZ-CmmunSY68zc-156" vertex="1">
          <mxGeometry x="31.559999999999945" y="35" width="30" height="40" as="geometry" />
        </mxCell>
        <mxCell id="WNAg6DyZ-CmmunSY68zc-165" value="&lt;font color=&quot;#ff8000&quot; style=&quot;font-size: 15px;&quot; face=&quot;Helvetica&quot;&gt;N&lt;/font&gt;" style="text;html=1;align=center;verticalAlign=middle;resizable=0;points=[];autosize=1;fontSize=20;fontFamily=Architects Daughter;" parent="WNAg6DyZ-CmmunSY68zc-156" vertex="1">
          <mxGeometry x="190" y="35" width="30" height="40" as="geometry" />
        </mxCell>
        <mxCell id="WNAg6DyZ-CmmunSY68zc-166" style="edgeStyle=orthogonalEdgeStyle;shape=connector;rounded=0;hachureGap=4;orthogonalLoop=1;jettySize=auto;html=1;exitX=0.5;exitY=1;exitDx=0;exitDy=0;entryX=0;entryY=0.5;entryDx=0;entryDy=0;labelBackgroundColor=default;strokeColor=default;align=center;verticalAlign=middle;fontFamily=Helvetica;fontSource=https%3A%2F%2Ffonts.googleapis.com%2Fcss%3Ffamily%3DArchitects%2BDaughter;fontSize=20;fontColor=default;endArrow=none;endFill=0;" parent="1" source="WNAg6DyZ-CmmunSY68zc-67" target="WNAg6DyZ-CmmunSY68zc-157" edge="1">
          <mxGeometry relative="1" as="geometry" />
        </mxCell>
        <mxCell id="WNAg6DyZ-CmmunSY68zc-167" style="edgeStyle=orthogonalEdgeStyle;shape=connector;rounded=0;hachureGap=4;orthogonalLoop=1;jettySize=auto;html=1;exitX=1;exitY=0.5;exitDx=0;exitDy=0;entryX=0.5;entryY=1;entryDx=0;entryDy=0;labelBackgroundColor=default;strokeColor=default;align=center;verticalAlign=middle;fontFamily=Helvetica;fontSource=https%3A%2F%2Ffonts.googleapis.com%2Fcss%3Ffamily%3DArchitects%2BDaughter;fontSize=20;fontColor=default;endArrow=none;endFill=0;" parent="1" source="WNAg6DyZ-CmmunSY68zc-157" target="WNAg6DyZ-CmmunSY68zc-2" edge="1">
          <mxGeometry relative="1" as="geometry" />
        </mxCell>
        <mxCell id="WNAg6DyZ-CmmunSY68zc-168" style="edgeStyle=orthogonalEdgeStyle;shape=connector;rounded=0;hachureGap=4;orthogonalLoop=1;jettySize=auto;html=1;exitX=1;exitY=0.5;exitDx=0;exitDy=0;entryX=0;entryY=0.5;entryDx=0;entryDy=0;labelBackgroundColor=default;strokeColor=default;align=center;verticalAlign=middle;fontFamily=Helvetica;fontSource=https%3A%2F%2Ffonts.googleapis.com%2Fcss%3Ffamily%3DArchitects%2BDaughter;fontSize=20;fontColor=default;endArrow=none;endFill=0;" parent="1" source="WNAg6DyZ-CmmunSY68zc-2" target="WNAg6DyZ-CmmunSY68zc-121" edge="1">
          <mxGeometry relative="1" as="geometry" />
        </mxCell>
        <mxCell id="WNAg6DyZ-CmmunSY68zc-169" style="edgeStyle=orthogonalEdgeStyle;shape=connector;rounded=0;hachureGap=4;orthogonalLoop=1;jettySize=auto;html=1;exitX=0.5;exitY=1;exitDx=0;exitDy=0;entryX=0.5;entryY=0;entryDx=0;entryDy=0;labelBackgroundColor=default;strokeColor=default;align=center;verticalAlign=middle;fontFamily=Helvetica;fontSource=https%3A%2F%2Ffonts.googleapis.com%2Fcss%3Ffamily%3DArchitects%2BDaughter;fontSize=20;fontColor=default;endArrow=none;endFill=0;" parent="1" source="WNAg6DyZ-CmmunSY68zc-121" target="WNAg6DyZ-CmmunSY68zc-174" edge="1">
          <mxGeometry relative="1" as="geometry" />
        </mxCell>
        <mxCell id="WNAg6DyZ-CmmunSY68zc-170" value="&lt;font color=&quot;#ff8000&quot; style=&quot;font-size: 10px;&quot; face=&quot;Helvetica&quot;&gt;(0, N)&lt;/font&gt;" style="text;html=1;align=center;verticalAlign=middle;resizable=0;points=[];autosize=1;fontSize=20;fontFamily=Architects Daughter;" parent="1" vertex="1">
          <mxGeometry x="188.99999999999994" y="-616" width="50" height="40" as="geometry" />
        </mxCell>
        <mxCell id="WNAg6DyZ-CmmunSY68zc-171" value="&lt;font color=&quot;#ff8000&quot; style=&quot;font-size: 10px;&quot; face=&quot;Helvetica&quot;&gt;(1, N)&lt;/font&gt;" style="text;html=1;align=center;verticalAlign=middle;resizable=0;points=[];autosize=1;fontSize=20;fontFamily=Architects Daughter;" parent="1" vertex="1">
          <mxGeometry x="967" y="-306" width="50" height="40" as="geometry" />
        </mxCell>
        <mxCell id="WNAg6DyZ-CmmunSY68zc-172" value="&lt;font color=&quot;#ff8000&quot; style=&quot;font-size: 10px;&quot; face=&quot;Helvetica&quot;&gt;(N, M)&lt;/font&gt;" style="text;html=1;align=center;verticalAlign=middle;resizable=0;points=[];autosize=1;fontSize=20;fontFamily=Architects Daughter;" parent="1" vertex="1">
          <mxGeometry x="1029.1299999999999" y="-360" width="50" height="40" as="geometry" />
        </mxCell>
        <mxCell id="WNAg6DyZ-CmmunSY68zc-207" value="&lt;font color=&quot;#ff8000&quot; style=&quot;font-size: 10px;&quot; face=&quot;Helvetica&quot;&gt;(0, N)&lt;/font&gt;" style="text;html=1;align=center;verticalAlign=middle;resizable=0;points=[];autosize=1;fontSize=20;fontFamily=Architects Daughter;" parent="1" vertex="1">
          <mxGeometry x="209.82999999999993" y="-711" width="50" height="40" as="geometry" />
        </mxCell>
        <mxCell id="WNAg6DyZ-CmmunSY68zc-208" value="&lt;font color=&quot;#ff8000&quot; style=&quot;font-size: 10px;&quot; face=&quot;Helvetica&quot;&gt;(1, 1)&lt;/font&gt;" style="text;html=1;align=center;verticalAlign=middle;resizable=0;points=[];autosize=1;fontSize=20;fontFamily=Architects Daughter;" parent="1" vertex="1">
          <mxGeometry x="145.7" y="-735" width="50" height="40" as="geometry" />
        </mxCell>
        <mxCell id="WNAg6DyZ-CmmunSY68zc-315" value="" style="group" parent="1" vertex="1" connectable="0">
          <mxGeometry x="36.32999999999999" y="-835" width="337.84999999999997" height="165" as="geometry" />
        </mxCell>
        <mxCell id="WNAg6DyZ-CmmunSY68zc-210" value="" style="ellipse;whiteSpace=wrap;html=1;aspect=fixed;rounded=0;hachureGap=4;strokeColor=default;align=center;verticalAlign=middle;fontFamily=Helvetica;fontSize=20;fontColor=default;fillColor=#FFFFFF;" parent="WNAg6DyZ-CmmunSY68zc-315" vertex="1">
          <mxGeometry x="29.53000000000001" y="120" width="10" height="10" as="geometry" />
        </mxCell>
        <mxCell id="WNAg6DyZ-CmmunSY68zc-211" style="edgeStyle=none;shape=connector;rounded=0;hachureGap=4;orthogonalLoop=1;jettySize=auto;html=1;exitX=0;exitY=1;exitDx=0;exitDy=0;entryX=1;entryY=0;entryDx=0;entryDy=0;labelBackgroundColor=default;strokeColor=default;align=center;verticalAlign=middle;fontFamily=Helvetica;fontSource=https%3A%2F%2Ffonts.googleapis.com%2Fcss%3Ffamily%3DArchitects%2BDaughter;fontSize=20;fontColor=default;endArrow=none;endFill=0;" parent="WNAg6DyZ-CmmunSY68zc-315" source="WNAg6DyZ-CmmunSY68zc-212" target="WNAg6DyZ-CmmunSY68zc-210" edge="1">
          <mxGeometry relative="1" as="geometry" />
        </mxCell>
        <mxCell id="WNAg6DyZ-CmmunSY68zc-212" value="Utente" style="whiteSpace=wrap;html=1;align=center;hachureGap=4;fontFamily=Helvetica;fontSize=20;rounded=0;" parent="WNAg6DyZ-CmmunSY68zc-315" vertex="1">
          <mxGeometry x="84.06" y="75" width="130" height="40" as="geometry" />
        </mxCell>
        <mxCell id="WNAg6DyZ-CmmunSY68zc-213" value="" style="ellipse;whiteSpace=wrap;html=1;aspect=fixed;rounded=0;hachureGap=4;strokeColor=default;align=center;verticalAlign=middle;fontFamily=Helvetica;fontSize=20;fontColor=default;fillColor=#FFFFFF;" parent="WNAg6DyZ-CmmunSY68zc-315" vertex="1">
          <mxGeometry x="67.81" y="30" width="10" height="10" as="geometry" />
        </mxCell>
        <mxCell id="WNAg6DyZ-CmmunSY68zc-214" style="edgeStyle=none;shape=connector;rounded=0;hachureGap=4;orthogonalLoop=1;jettySize=auto;html=1;exitX=0.25;exitY=0;exitDx=0;exitDy=0;entryX=1;entryY=1;entryDx=0;entryDy=0;labelBackgroundColor=default;strokeColor=default;align=center;verticalAlign=middle;fontFamily=Helvetica;fontSource=https%3A%2F%2Ffonts.googleapis.com%2Fcss%3Ffamily%3DArchitects%2BDaughter;fontSize=20;fontColor=default;endArrow=none;endFill=0;" parent="WNAg6DyZ-CmmunSY68zc-315" source="WNAg6DyZ-CmmunSY68zc-212" target="WNAg6DyZ-CmmunSY68zc-213" edge="1">
          <mxGeometry relative="1" as="geometry" />
        </mxCell>
        <mxCell id="WNAg6DyZ-CmmunSY68zc-215" value="" style="ellipse;whiteSpace=wrap;html=1;aspect=fixed;rounded=0;hachureGap=4;strokeColor=default;align=center;verticalAlign=middle;fontFamily=Helvetica;fontSize=20;fontColor=default;fillColor=#FFFFFF;" parent="WNAg6DyZ-CmmunSY68zc-315" vertex="1">
          <mxGeometry x="114.99000000000001" y="30" width="10" height="10" as="geometry" />
        </mxCell>
        <mxCell id="WNAg6DyZ-CmmunSY68zc-216" style="edgeStyle=none;shape=connector;rounded=0;hachureGap=4;orthogonalLoop=1;jettySize=auto;html=1;entryX=0.5;entryY=1;entryDx=0;entryDy=0;labelBackgroundColor=default;strokeColor=default;align=center;verticalAlign=middle;fontFamily=Helvetica;fontSource=https%3A%2F%2Ffonts.googleapis.com%2Fcss%3Ffamily%3DArchitects%2BDaughter;fontSize=20;fontColor=default;endArrow=none;endFill=0;" parent="WNAg6DyZ-CmmunSY68zc-315" source="WNAg6DyZ-CmmunSY68zc-212" target="WNAg6DyZ-CmmunSY68zc-215" edge="1">
          <mxGeometry relative="1" as="geometry" />
        </mxCell>
        <mxCell id="WNAg6DyZ-CmmunSY68zc-217" value="" style="ellipse;whiteSpace=wrap;html=1;aspect=fixed;rounded=0;hachureGap=4;strokeColor=default;align=center;verticalAlign=middle;fontFamily=Helvetica;fontSize=20;fontColor=default;fillColor=#FFFFFF;" parent="WNAg6DyZ-CmmunSY68zc-315" vertex="1">
          <mxGeometry x="19.53" y="75" width="10" height="10" as="geometry" />
        </mxCell>
        <mxCell id="WNAg6DyZ-CmmunSY68zc-218" style="edgeStyle=none;shape=connector;rounded=0;hachureGap=4;orthogonalLoop=1;jettySize=auto;html=1;exitX=0;exitY=0.5;exitDx=0;exitDy=0;labelBackgroundColor=default;strokeColor=default;align=center;verticalAlign=middle;fontFamily=Helvetica;fontSource=https%3A%2F%2Ffonts.googleapis.com%2Fcss%3Ffamily%3DArchitects%2BDaughter;fontSize=20;fontColor=default;endArrow=none;endFill=0;" parent="WNAg6DyZ-CmmunSY68zc-315" source="WNAg6DyZ-CmmunSY68zc-212" target="WNAg6DyZ-CmmunSY68zc-217" edge="1">
          <mxGeometry relative="1" as="geometry">
            <mxPoint x="25.940000000000005" y="95" as="targetPoint" />
          </mxGeometry>
        </mxCell>
        <mxCell id="WNAg6DyZ-CmmunSY68zc-219" value="" style="ellipse;whiteSpace=wrap;html=1;aspect=fixed;rounded=0;hachureGap=4;strokeColor=default;align=center;verticalAlign=middle;fontFamily=Helvetica;fontSize=20;fontColor=default;fillColor=#FFFFFF;" parent="WNAg6DyZ-CmmunSY68zc-315" vertex="1">
          <mxGeometry x="194.88" y="35" width="10" height="10" as="geometry" />
        </mxCell>
        <mxCell id="WNAg6DyZ-CmmunSY68zc-220" style="edgeStyle=none;shape=connector;rounded=0;hachureGap=4;orthogonalLoop=1;jettySize=auto;html=1;exitX=0.75;exitY=0;exitDx=0;exitDy=0;labelBackgroundColor=default;strokeColor=default;align=center;verticalAlign=middle;fontFamily=Helvetica;fontSource=https%3A%2F%2Ffonts.googleapis.com%2Fcss%3Ffamily%3DArchitects%2BDaughter;fontSize=20;fontColor=default;endArrow=none;endFill=0;" parent="WNAg6DyZ-CmmunSY68zc-315" source="WNAg6DyZ-CmmunSY68zc-212" target="WNAg6DyZ-CmmunSY68zc-219" edge="1">
          <mxGeometry relative="1" as="geometry">
            <mxPoint x="183.67000000000002" y="65" as="targetPoint" />
          </mxGeometry>
        </mxCell>
        <mxCell id="WNAg6DyZ-CmmunSY68zc-221" value="&lt;font style=&quot;font-size: 10px;&quot;&gt;Nome&lt;/font&gt;" style="text;html=1;strokeColor=none;fillColor=none;align=center;verticalAlign=middle;whiteSpace=wrap;rounded=0;fontSize=20;fontFamily=Helvetica;fontColor=default;" parent="WNAg6DyZ-CmmunSY68zc-315" vertex="1">
          <mxGeometry x="51.56000000000001" y="10" width="42.5" height="20" as="geometry" />
        </mxCell>
        <mxCell id="WNAg6DyZ-CmmunSY68zc-222" value="&lt;font style=&quot;font-size: 10px;&quot;&gt;Cognome&lt;/font&gt;" style="text;html=1;strokeColor=none;fillColor=none;align=center;verticalAlign=middle;whiteSpace=wrap;rounded=0;fontSize=20;fontFamily=Helvetica;fontColor=default;" parent="WNAg6DyZ-CmmunSY68zc-315" vertex="1">
          <mxGeometry x="95.92000000000002" y="10" width="48.13" height="20" as="geometry" />
        </mxCell>
        <mxCell id="WNAg6DyZ-CmmunSY68zc-223" value="" style="group" parent="WNAg6DyZ-CmmunSY68zc-315" vertex="1" connectable="0">
          <mxGeometry x="34.06000000000001" y="25" width="15" height="30" as="geometry" />
        </mxCell>
        <mxCell id="WNAg6DyZ-CmmunSY68zc-224" value="" style="ellipse;whiteSpace=wrap;html=1;aspect=fixed;rounded=0;hachureGap=4;strokeColor=default;align=center;verticalAlign=middle;fontFamily=Helvetica;fontSize=20;fontColor=default;fillColor=#000000;" parent="WNAg6DyZ-CmmunSY68zc-223" vertex="1">
          <mxGeometry x="2.5" y="20" width="10" height="10" as="geometry" />
        </mxCell>
        <mxCell id="WNAg6DyZ-CmmunSY68zc-226" style="rounded=0;hachureGap=4;orthogonalLoop=1;jettySize=auto;html=1;exitX=0;exitY=0;exitDx=0;exitDy=0;entryX=1;entryY=1;entryDx=0;entryDy=0;fontFamily=Helvetica;fontSource=https%3A%2F%2Ffonts.googleapis.com%2Fcss%3Ffamily%3DArchitects%2BDaughter;fontSize=20;fontColor=default;endArrow=none;endFill=0;" parent="WNAg6DyZ-CmmunSY68zc-315" source="WNAg6DyZ-CmmunSY68zc-212" target="WNAg6DyZ-CmmunSY68zc-224" edge="1">
          <mxGeometry relative="1" as="geometry" />
        </mxCell>
        <mxCell id="WNAg6DyZ-CmmunSY68zc-227" value="&lt;font style=&quot;font-size: 10px;&quot;&gt;Username&lt;br&gt;&lt;/font&gt;" style="text;html=1;strokeColor=none;fillColor=none;align=center;verticalAlign=middle;whiteSpace=wrap;rounded=0;fontSize=20;fontFamily=Helvetica;fontColor=default;" parent="WNAg6DyZ-CmmunSY68zc-315" vertex="1">
          <mxGeometry y="55" width="49.06" height="20" as="geometry" />
        </mxCell>
        <mxCell id="WNAg6DyZ-CmmunSY68zc-228" value="" style="ellipse;whiteSpace=wrap;html=1;aspect=fixed;rounded=0;hachureGap=4;strokeColor=default;align=center;verticalAlign=middle;fontFamily=Helvetica;fontSize=20;fontColor=default;fillColor=#FFFFFF;" parent="WNAg6DyZ-CmmunSY68zc-315" vertex="1">
          <mxGeometry x="67.81" y="145" width="10" height="10" as="geometry" />
        </mxCell>
        <mxCell id="WNAg6DyZ-CmmunSY68zc-229" style="edgeStyle=none;shape=connector;rounded=0;hachureGap=4;orthogonalLoop=1;jettySize=auto;html=1;exitX=0.25;exitY=1;exitDx=0;exitDy=0;labelBackgroundColor=default;strokeColor=default;align=center;verticalAlign=middle;fontFamily=Helvetica;fontSource=https%3A%2F%2Ffonts.googleapis.com%2Fcss%3Ffamily%3DArchitects%2BDaughter;fontSize=20;fontColor=default;endArrow=none;endFill=0;" parent="WNAg6DyZ-CmmunSY68zc-315" source="WNAg6DyZ-CmmunSY68zc-212" target="WNAg6DyZ-CmmunSY68zc-228" edge="1">
          <mxGeometry relative="1" as="geometry" />
        </mxCell>
        <mxCell id="WNAg6DyZ-CmmunSY68zc-230" value="&lt;font style=&quot;font-size: 10px;&quot;&gt;Telefono&lt;/font&gt;" style="text;html=1;strokeColor=none;fillColor=none;align=center;verticalAlign=middle;whiteSpace=wrap;rounded=0;fontSize=20;fontFamily=Helvetica;fontColor=default;" parent="WNAg6DyZ-CmmunSY68zc-315" vertex="1">
          <mxGeometry x="53.43" y="145" width="38.75" height="20" as="geometry" />
        </mxCell>
        <mxCell id="WNAg6DyZ-CmmunSY68zc-231" value="" style="ellipse;whiteSpace=wrap;html=1;aspect=fixed;rounded=0;hachureGap=4;strokeColor=default;align=center;verticalAlign=middle;fontFamily=Helvetica;fontSize=20;fontColor=default;fillColor=#FFFFFF;" parent="WNAg6DyZ-CmmunSY68zc-315" vertex="1">
          <mxGeometry x="153.67" y="20" width="10" height="10" as="geometry" />
        </mxCell>
        <mxCell id="WNAg6DyZ-CmmunSY68zc-232" style="edgeStyle=none;shape=connector;rounded=0;hachureGap=4;orthogonalLoop=1;jettySize=auto;html=1;exitX=0.5;exitY=0;exitDx=0;exitDy=0;labelBackgroundColor=default;strokeColor=default;align=center;verticalAlign=middle;fontFamily=Helvetica;fontSource=https%3A%2F%2Ffonts.googleapis.com%2Fcss%3Ffamily%3DArchitects%2BDaughter;fontSize=20;fontColor=default;endArrow=none;endFill=0;" parent="WNAg6DyZ-CmmunSY68zc-315" source="WNAg6DyZ-CmmunSY68zc-212" target="WNAg6DyZ-CmmunSY68zc-231" edge="1">
          <mxGeometry relative="1" as="geometry" />
        </mxCell>
        <mxCell id="WNAg6DyZ-CmmunSY68zc-233" value="" style="ellipse;whiteSpace=wrap;html=1;aspect=fixed;rounded=0;hachureGap=4;strokeColor=default;align=center;verticalAlign=middle;fontFamily=Helvetica;fontSize=20;fontColor=default;fillColor=#FFFFFF;" parent="WNAg6DyZ-CmmunSY68zc-315" vertex="1">
          <mxGeometry x="233.94" y="45" width="10" height="10" as="geometry" />
        </mxCell>
        <mxCell id="WNAg6DyZ-CmmunSY68zc-234" style="edgeStyle=none;shape=connector;rounded=0;hachureGap=4;orthogonalLoop=1;jettySize=auto;html=1;exitX=1;exitY=0;exitDx=0;exitDy=0;labelBackgroundColor=default;strokeColor=default;align=center;verticalAlign=middle;fontFamily=Helvetica;fontSource=https%3A%2F%2Ffonts.googleapis.com%2Fcss%3Ffamily%3DArchitects%2BDaughter;fontSize=20;fontColor=default;endArrow=none;endFill=0;" parent="WNAg6DyZ-CmmunSY68zc-315" source="WNAg6DyZ-CmmunSY68zc-212" target="WNAg6DyZ-CmmunSY68zc-233" edge="1">
          <mxGeometry relative="1" as="geometry" />
        </mxCell>
        <mxCell id="WNAg6DyZ-CmmunSY68zc-235" value="&lt;font style=&quot;font-size: 10px;&quot;&gt;DataNascita&lt;/font&gt;" style="text;html=1;strokeColor=none;fillColor=none;align=center;verticalAlign=middle;whiteSpace=wrap;rounded=0;fontSize=20;fontFamily=Helvetica;fontColor=default;" parent="WNAg6DyZ-CmmunSY68zc-315" vertex="1">
          <mxGeometry x="6.410000000000018" y="120" width="56.25" height="20" as="geometry" />
        </mxCell>
        <mxCell id="WNAg6DyZ-CmmunSY68zc-236" value="&lt;font style=&quot;font-size: 10px;&quot;&gt;Email&lt;/font&gt;" style="text;html=1;strokeColor=none;fillColor=none;align=center;verticalAlign=middle;whiteSpace=wrap;rounded=0;fontSize=20;fontFamily=Helvetica;fontColor=default;" parent="WNAg6DyZ-CmmunSY68zc-315" vertex="1">
          <mxGeometry x="243.94" y="35" width="29.46" height="20" as="geometry" />
        </mxCell>
        <mxCell id="WNAg6DyZ-CmmunSY68zc-237" value="&lt;font style=&quot;font-size: 10px;&quot;&gt;DataRegistrazione&lt;/font&gt;" style="text;html=1;strokeColor=none;fillColor=none;align=center;verticalAlign=middle;whiteSpace=wrap;rounded=0;fontSize=20;fontFamily=Helvetica;fontColor=default;" parent="WNAg6DyZ-CmmunSY68zc-315" vertex="1">
          <mxGeometry x="175.55" y="15" width="88.12" height="20" as="geometry" />
        </mxCell>
        <mxCell id="WNAg6DyZ-CmmunSY68zc-238" value="&lt;font style=&quot;font-size: 10px;&quot;&gt;Password&lt;/font&gt;" style="text;html=1;strokeColor=none;fillColor=none;align=center;verticalAlign=middle;whiteSpace=wrap;rounded=0;fontSize=20;fontFamily=Helvetica;fontColor=default;" parent="WNAg6DyZ-CmmunSY68zc-315" vertex="1">
          <mxGeometry x="134.29999999999995" width="48.75" height="20" as="geometry" />
        </mxCell>
        <mxCell id="WNAg6DyZ-CmmunSY68zc-264" style="rounded=0;hachureGap=4;orthogonalLoop=1;jettySize=auto;html=1;exitX=1;exitY=0.5;exitDx=0;exitDy=0;fontFamily=Architects Daughter;fontSource=https%3A%2F%2Ffonts.googleapis.com%2Fcss%3Ffamily%3DArchitects%2BDaughter;fontSize=16;endArrow=none;endFill=0;" parent="WNAg6DyZ-CmmunSY68zc-315" source="WNAg6DyZ-CmmunSY68zc-212" target="WNAg6DyZ-CmmunSY68zc-263" edge="1">
          <mxGeometry relative="1" as="geometry" />
        </mxCell>
        <mxCell id="WNAg6DyZ-CmmunSY68zc-276" value="&lt;font style=&quot;font-size: 10px;&quot;&gt;Via&lt;/font&gt;" style="text;html=1;strokeColor=none;fillColor=none;align=center;verticalAlign=middle;whiteSpace=wrap;rounded=0;fontSize=20;fontFamily=Helvetica;fontColor=default;" parent="WNAg6DyZ-CmmunSY68zc-315" vertex="1">
          <mxGeometry x="298.39000000000004" y="45" width="20.28" height="20" as="geometry" />
        </mxCell>
        <mxCell id="WNAg6DyZ-CmmunSY68zc-298" value="" style="group" parent="WNAg6DyZ-CmmunSY68zc-315" vertex="1" connectable="0">
          <mxGeometry x="221.70999999999998" y="54.5" width="116.13999999999999" height="73.5" as="geometry" />
        </mxCell>
        <mxCell id="WNAg6DyZ-CmmunSY68zc-263" value="&lt;font style=&quot;font-size: 9px;&quot;&gt;Indirizzo&lt;/font&gt;" style="ellipse;whiteSpace=wrap;html=1;align=center;hachureGap=4;fontFamily=Helvetica;fontSize=9;" parent="WNAg6DyZ-CmmunSY68zc-298" vertex="1">
          <mxGeometry x="16.690000000000055" y="19.5" width="40" height="20" as="geometry" />
        </mxCell>
        <mxCell id="WNAg6DyZ-CmmunSY68zc-265" value="" style="ellipse;whiteSpace=wrap;html=1;aspect=fixed;rounded=0;hachureGap=4;strokeColor=default;align=center;verticalAlign=middle;fontFamily=Helvetica;fontSize=20;fontColor=default;fillColor=#FFFFFF;" parent="WNAg6DyZ-CmmunSY68zc-298" vertex="1">
          <mxGeometry x="66.68" width="10" height="10" as="geometry" />
        </mxCell>
        <mxCell id="WNAg6DyZ-CmmunSY68zc-275" style="edgeStyle=none;shape=connector;rounded=0;hachureGap=4;orthogonalLoop=1;jettySize=auto;html=1;exitX=1;exitY=0;exitDx=0;exitDy=0;labelBackgroundColor=default;strokeColor=default;align=center;verticalAlign=middle;fontFamily=Helvetica;fontSource=https%3A%2F%2Ffonts.googleapis.com%2Fcss%3Ffamily%3DArchitects%2BDaughter;fontSize=9;fontColor=default;endArrow=none;endFill=0;" parent="WNAg6DyZ-CmmunSY68zc-298" source="WNAg6DyZ-CmmunSY68zc-263" target="WNAg6DyZ-CmmunSY68zc-265" edge="1">
          <mxGeometry relative="1" as="geometry" />
        </mxCell>
        <mxCell id="WNAg6DyZ-CmmunSY68zc-266" value="" style="ellipse;whiteSpace=wrap;html=1;aspect=fixed;rounded=0;hachureGap=4;strokeColor=default;align=center;verticalAlign=middle;fontFamily=Helvetica;fontSize=20;fontColor=default;fillColor=#FFFFFF;" parent="WNAg6DyZ-CmmunSY68zc-298" vertex="1">
          <mxGeometry x="76.68" y="24.5" width="10" height="10" as="geometry" />
        </mxCell>
        <mxCell id="WNAg6DyZ-CmmunSY68zc-274" style="edgeStyle=none;shape=connector;rounded=0;hachureGap=4;orthogonalLoop=1;jettySize=auto;html=1;exitX=1;exitY=0.5;exitDx=0;exitDy=0;labelBackgroundColor=default;strokeColor=default;align=center;verticalAlign=middle;fontFamily=Helvetica;fontSource=https%3A%2F%2Ffonts.googleapis.com%2Fcss%3Ffamily%3DArchitects%2BDaughter;fontSize=9;fontColor=default;endArrow=none;endFill=0;" parent="WNAg6DyZ-CmmunSY68zc-298" source="WNAg6DyZ-CmmunSY68zc-263" target="WNAg6DyZ-CmmunSY68zc-266" edge="1">
          <mxGeometry relative="1" as="geometry" />
        </mxCell>
        <mxCell id="WNAg6DyZ-CmmunSY68zc-267" value="" style="ellipse;whiteSpace=wrap;html=1;aspect=fixed;rounded=0;hachureGap=4;strokeColor=default;align=center;verticalAlign=middle;fontFamily=Helvetica;fontSize=20;fontColor=default;fillColor=#FFFFFF;" parent="WNAg6DyZ-CmmunSY68zc-298" vertex="1">
          <mxGeometry x="66.68" y="48.5" width="10" height="10" as="geometry" />
        </mxCell>
        <mxCell id="WNAg6DyZ-CmmunSY68zc-273" style="edgeStyle=none;shape=connector;rounded=0;hachureGap=4;orthogonalLoop=1;jettySize=auto;html=1;exitX=1;exitY=1;exitDx=0;exitDy=0;labelBackgroundColor=default;strokeColor=default;align=center;verticalAlign=middle;fontFamily=Helvetica;fontSource=https%3A%2F%2Ffonts.googleapis.com%2Fcss%3Ffamily%3DArchitects%2BDaughter;fontSize=9;fontColor=default;endArrow=none;endFill=0;" parent="WNAg6DyZ-CmmunSY68zc-298" source="WNAg6DyZ-CmmunSY68zc-263" target="WNAg6DyZ-CmmunSY68zc-267" edge="1">
          <mxGeometry relative="1" as="geometry" />
        </mxCell>
        <mxCell id="WNAg6DyZ-CmmunSY68zc-268" value="" style="ellipse;whiteSpace=wrap;html=1;aspect=fixed;rounded=0;hachureGap=4;strokeColor=default;align=center;verticalAlign=middle;fontFamily=Helvetica;fontSize=20;fontColor=default;fillColor=#FFFFFF;" parent="WNAg6DyZ-CmmunSY68zc-298" vertex="1">
          <mxGeometry x="36.55000000000001" y="53.5" width="10" height="10" as="geometry" />
        </mxCell>
        <mxCell id="WNAg6DyZ-CmmunSY68zc-272" style="edgeStyle=none;shape=connector;rounded=0;hachureGap=4;orthogonalLoop=1;jettySize=auto;html=1;exitX=0.5;exitY=1;exitDx=0;exitDy=0;labelBackgroundColor=default;strokeColor=default;align=center;verticalAlign=middle;fontFamily=Helvetica;fontSource=https%3A%2F%2Ffonts.googleapis.com%2Fcss%3Ffamily%3DArchitects%2BDaughter;fontSize=9;fontColor=default;endArrow=none;endFill=0;" parent="WNAg6DyZ-CmmunSY68zc-298" source="WNAg6DyZ-CmmunSY68zc-263" target="WNAg6DyZ-CmmunSY68zc-268" edge="1">
          <mxGeometry relative="1" as="geometry" />
        </mxCell>
        <mxCell id="WNAg6DyZ-CmmunSY68zc-270" value="" style="ellipse;whiteSpace=wrap;html=1;aspect=fixed;rounded=0;hachureGap=4;strokeColor=default;align=center;verticalAlign=middle;fontFamily=Helvetica;fontSize=20;fontColor=default;fillColor=#FFFFFF;" parent="WNAg6DyZ-CmmunSY68zc-298" vertex="1">
          <mxGeometry x="7.230000000000018" y="48.5" width="10" height="10" as="geometry" />
        </mxCell>
        <mxCell id="WNAg6DyZ-CmmunSY68zc-271" style="edgeStyle=none;shape=connector;rounded=0;hachureGap=4;orthogonalLoop=1;jettySize=auto;html=1;exitX=0;exitY=1;exitDx=0;exitDy=0;labelBackgroundColor=default;strokeColor=default;align=center;verticalAlign=middle;fontFamily=Helvetica;fontSource=https%3A%2F%2Ffonts.googleapis.com%2Fcss%3Ffamily%3DArchitects%2BDaughter;fontSize=9;fontColor=default;endArrow=none;endFill=0;" parent="WNAg6DyZ-CmmunSY68zc-298" source="WNAg6DyZ-CmmunSY68zc-263" target="WNAg6DyZ-CmmunSY68zc-270" edge="1">
          <mxGeometry relative="1" as="geometry" />
        </mxCell>
        <mxCell id="WNAg6DyZ-CmmunSY68zc-277" value="&lt;font style=&quot;font-size: 10px;&quot;&gt;Civico&lt;/font&gt;" style="text;html=1;strokeColor=none;fillColor=none;align=center;verticalAlign=middle;whiteSpace=wrap;rounded=0;fontSize=20;fontFamily=Helvetica;fontColor=default;" parent="WNAg6DyZ-CmmunSY68zc-298" vertex="1">
          <mxGeometry x="86.68" y="14.5" width="29.46" height="20" as="geometry" />
        </mxCell>
        <mxCell id="WNAg6DyZ-CmmunSY68zc-278" value="&lt;font style=&quot;font-size: 10px;&quot;&gt;CAP&lt;/font&gt;" style="text;html=1;strokeColor=none;fillColor=none;align=center;verticalAlign=middle;whiteSpace=wrap;rounded=0;fontSize=20;fontFamily=Helvetica;fontColor=default;" parent="WNAg6DyZ-CmmunSY68zc-298" vertex="1">
          <mxGeometry x="76.68" y="39.5" width="29.46" height="20" as="geometry" />
        </mxCell>
        <mxCell id="WNAg6DyZ-CmmunSY68zc-279" value="&lt;font style=&quot;font-size: 10px;&quot;&gt;Città&lt;/font&gt;" style="text;html=1;strokeColor=none;fillColor=none;align=center;verticalAlign=middle;whiteSpace=wrap;rounded=0;fontSize=20;fontFamily=Helvetica;fontColor=default;" parent="WNAg6DyZ-CmmunSY68zc-298" vertex="1">
          <mxGeometry x="31.680000000000007" y="53.5" width="19.73" height="20" as="geometry" />
        </mxCell>
        <mxCell id="WNAg6DyZ-CmmunSY68zc-280" value="&lt;font style=&quot;font-size: 10px;&quot;&gt;Prov&lt;/font&gt;" style="text;html=1;strokeColor=none;fillColor=none;align=center;verticalAlign=middle;whiteSpace=wrap;rounded=0;fontSize=20;fontFamily=Helvetica;fontColor=default;" parent="WNAg6DyZ-CmmunSY68zc-298" vertex="1">
          <mxGeometry y="48.5" width="24.46" height="20" as="geometry" />
        </mxCell>
        <mxCell id="WNAg6DyZ-CmmunSY68zc-225" value="&lt;font style=&quot;font-size: 10px;&quot;&gt;ID_Utente&lt;/font&gt;" style="text;html=1;strokeColor=none;fillColor=none;align=center;verticalAlign=middle;whiteSpace=wrap;rounded=0;fontSize=20;fontFamily=Helvetica;fontColor=default;" parent="WNAg6DyZ-CmmunSY68zc-315" vertex="1">
          <mxGeometry x="12.030000000000008" y="25" width="45" height="20" as="geometry" />
        </mxCell>
        <mxCell id="WNAg6DyZ-CmmunSY68zc-318" value="" style="group" parent="1" vertex="1" connectable="0">
          <mxGeometry x="1189.5900000000001" y="-240" width="366.5499999999997" height="133.5" as="geometry" />
        </mxCell>
        <mxCell id="WNAg6DyZ-CmmunSY68zc-299" value="" style="group" parent="WNAg6DyZ-CmmunSY68zc-318" vertex="1" connectable="0">
          <mxGeometry x="250.40999999999985" y="60" width="116.13999999999999" height="73.5" as="geometry" />
        </mxCell>
        <mxCell id="WNAg6DyZ-CmmunSY68zc-300" value="&lt;font style=&quot;font-size: 9px;&quot;&gt;Indirizzo&lt;/font&gt;" style="ellipse;whiteSpace=wrap;html=1;align=center;hachureGap=4;fontFamily=Helvetica;fontSize=9;" parent="WNAg6DyZ-CmmunSY68zc-299" vertex="1">
          <mxGeometry x="16.690000000000055" y="19.5" width="40" height="20" as="geometry" />
        </mxCell>
        <mxCell id="WNAg6DyZ-CmmunSY68zc-301" value="" style="ellipse;whiteSpace=wrap;html=1;aspect=fixed;rounded=0;hachureGap=4;strokeColor=default;align=center;verticalAlign=middle;fontFamily=Helvetica;fontSize=20;fontColor=default;fillColor=#FFFFFF;" parent="WNAg6DyZ-CmmunSY68zc-299" vertex="1">
          <mxGeometry x="66.68" width="10" height="10" as="geometry" />
        </mxCell>
        <mxCell id="WNAg6DyZ-CmmunSY68zc-302" style="edgeStyle=none;shape=connector;rounded=0;hachureGap=4;orthogonalLoop=1;jettySize=auto;html=1;exitX=1;exitY=0;exitDx=0;exitDy=0;labelBackgroundColor=default;strokeColor=default;align=center;verticalAlign=middle;fontFamily=Helvetica;fontSource=https%3A%2F%2Ffonts.googleapis.com%2Fcss%3Ffamily%3DArchitects%2BDaughter;fontSize=9;fontColor=default;endArrow=none;endFill=0;" parent="WNAg6DyZ-CmmunSY68zc-299" source="WNAg6DyZ-CmmunSY68zc-300" target="WNAg6DyZ-CmmunSY68zc-301" edge="1">
          <mxGeometry relative="1" as="geometry" />
        </mxCell>
        <mxCell id="WNAg6DyZ-CmmunSY68zc-303" value="" style="ellipse;whiteSpace=wrap;html=1;aspect=fixed;rounded=0;hachureGap=4;strokeColor=default;align=center;verticalAlign=middle;fontFamily=Helvetica;fontSize=20;fontColor=default;fillColor=#FFFFFF;" parent="WNAg6DyZ-CmmunSY68zc-299" vertex="1">
          <mxGeometry x="76.68" y="24.5" width="10" height="10" as="geometry" />
        </mxCell>
        <mxCell id="WNAg6DyZ-CmmunSY68zc-304" style="edgeStyle=none;shape=connector;rounded=0;hachureGap=4;orthogonalLoop=1;jettySize=auto;html=1;exitX=1;exitY=0.5;exitDx=0;exitDy=0;labelBackgroundColor=default;strokeColor=default;align=center;verticalAlign=middle;fontFamily=Helvetica;fontSource=https%3A%2F%2Ffonts.googleapis.com%2Fcss%3Ffamily%3DArchitects%2BDaughter;fontSize=9;fontColor=default;endArrow=none;endFill=0;" parent="WNAg6DyZ-CmmunSY68zc-299" source="WNAg6DyZ-CmmunSY68zc-300" target="WNAg6DyZ-CmmunSY68zc-303" edge="1">
          <mxGeometry relative="1" as="geometry" />
        </mxCell>
        <mxCell id="WNAg6DyZ-CmmunSY68zc-305" value="" style="ellipse;whiteSpace=wrap;html=1;aspect=fixed;rounded=0;hachureGap=4;strokeColor=default;align=center;verticalAlign=middle;fontFamily=Helvetica;fontSize=20;fontColor=default;fillColor=#FFFFFF;" parent="WNAg6DyZ-CmmunSY68zc-299" vertex="1">
          <mxGeometry x="66.68" y="48.5" width="10" height="10" as="geometry" />
        </mxCell>
        <mxCell id="WNAg6DyZ-CmmunSY68zc-306" style="edgeStyle=none;shape=connector;rounded=0;hachureGap=4;orthogonalLoop=1;jettySize=auto;html=1;exitX=1;exitY=1;exitDx=0;exitDy=0;labelBackgroundColor=default;strokeColor=default;align=center;verticalAlign=middle;fontFamily=Helvetica;fontSource=https%3A%2F%2Ffonts.googleapis.com%2Fcss%3Ffamily%3DArchitects%2BDaughter;fontSize=9;fontColor=default;endArrow=none;endFill=0;" parent="WNAg6DyZ-CmmunSY68zc-299" source="WNAg6DyZ-CmmunSY68zc-300" target="WNAg6DyZ-CmmunSY68zc-305" edge="1">
          <mxGeometry relative="1" as="geometry" />
        </mxCell>
        <mxCell id="WNAg6DyZ-CmmunSY68zc-307" value="" style="ellipse;whiteSpace=wrap;html=1;aspect=fixed;rounded=0;hachureGap=4;strokeColor=default;align=center;verticalAlign=middle;fontFamily=Helvetica;fontSize=20;fontColor=default;fillColor=#FFFFFF;" parent="WNAg6DyZ-CmmunSY68zc-299" vertex="1">
          <mxGeometry x="36.55000000000001" y="53.5" width="10" height="10" as="geometry" />
        </mxCell>
        <mxCell id="WNAg6DyZ-CmmunSY68zc-308" style="edgeStyle=none;shape=connector;rounded=0;hachureGap=4;orthogonalLoop=1;jettySize=auto;html=1;exitX=0.5;exitY=1;exitDx=0;exitDy=0;labelBackgroundColor=default;strokeColor=default;align=center;verticalAlign=middle;fontFamily=Helvetica;fontSource=https%3A%2F%2Ffonts.googleapis.com%2Fcss%3Ffamily%3DArchitects%2BDaughter;fontSize=9;fontColor=default;endArrow=none;endFill=0;" parent="WNAg6DyZ-CmmunSY68zc-299" source="WNAg6DyZ-CmmunSY68zc-300" target="WNAg6DyZ-CmmunSY68zc-307" edge="1">
          <mxGeometry relative="1" as="geometry" />
        </mxCell>
        <mxCell id="WNAg6DyZ-CmmunSY68zc-309" value="" style="ellipse;whiteSpace=wrap;html=1;aspect=fixed;rounded=0;hachureGap=4;strokeColor=default;align=center;verticalAlign=middle;fontFamily=Helvetica;fontSize=20;fontColor=default;fillColor=#FFFFFF;" parent="WNAg6DyZ-CmmunSY68zc-299" vertex="1">
          <mxGeometry x="7.230000000000018" y="48.5" width="10" height="10" as="geometry" />
        </mxCell>
        <mxCell id="WNAg6DyZ-CmmunSY68zc-310" style="edgeStyle=none;shape=connector;rounded=0;hachureGap=4;orthogonalLoop=1;jettySize=auto;html=1;exitX=0;exitY=1;exitDx=0;exitDy=0;labelBackgroundColor=default;strokeColor=default;align=center;verticalAlign=middle;fontFamily=Helvetica;fontSource=https%3A%2F%2Ffonts.googleapis.com%2Fcss%3Ffamily%3DArchitects%2BDaughter;fontSize=9;fontColor=default;endArrow=none;endFill=0;" parent="WNAg6DyZ-CmmunSY68zc-299" source="WNAg6DyZ-CmmunSY68zc-300" target="WNAg6DyZ-CmmunSY68zc-309" edge="1">
          <mxGeometry relative="1" as="geometry" />
        </mxCell>
        <mxCell id="WNAg6DyZ-CmmunSY68zc-311" value="&lt;font style=&quot;font-size: 10px;&quot;&gt;Civico&lt;/font&gt;" style="text;html=1;strokeColor=none;fillColor=none;align=center;verticalAlign=middle;whiteSpace=wrap;rounded=0;fontSize=20;fontFamily=Helvetica;fontColor=default;" parent="WNAg6DyZ-CmmunSY68zc-299" vertex="1">
          <mxGeometry x="86.68" y="14.5" width="29.46" height="20" as="geometry" />
        </mxCell>
        <mxCell id="WNAg6DyZ-CmmunSY68zc-312" value="&lt;font style=&quot;font-size: 10px;&quot;&gt;CAP&lt;/font&gt;" style="text;html=1;strokeColor=none;fillColor=none;align=center;verticalAlign=middle;whiteSpace=wrap;rounded=0;fontSize=20;fontFamily=Helvetica;fontColor=default;" parent="WNAg6DyZ-CmmunSY68zc-299" vertex="1">
          <mxGeometry x="76.68" y="39.5" width="29.46" height="20" as="geometry" />
        </mxCell>
        <mxCell id="WNAg6DyZ-CmmunSY68zc-313" value="&lt;font style=&quot;font-size: 10px;&quot;&gt;Città&lt;/font&gt;" style="text;html=1;strokeColor=none;fillColor=none;align=center;verticalAlign=middle;whiteSpace=wrap;rounded=0;fontSize=20;fontFamily=Helvetica;fontColor=default;" parent="WNAg6DyZ-CmmunSY68zc-299" vertex="1">
          <mxGeometry x="31.680000000000007" y="53.5" width="19.73" height="20" as="geometry" />
        </mxCell>
        <mxCell id="WNAg6DyZ-CmmunSY68zc-314" value="&lt;font style=&quot;font-size: 10px;&quot;&gt;Prov&lt;/font&gt;" style="text;html=1;strokeColor=none;fillColor=none;align=center;verticalAlign=middle;whiteSpace=wrap;rounded=0;fontSize=20;fontFamily=Helvetica;fontColor=default;" parent="WNAg6DyZ-CmmunSY68zc-299" vertex="1">
          <mxGeometry y="48.5" width="24.46" height="20" as="geometry" />
        </mxCell>
        <mxCell id="WNAg6DyZ-CmmunSY68zc-317" value="&lt;font style=&quot;font-size: 10px;&quot;&gt;Via&lt;/font&gt;" style="text;html=1;strokeColor=none;fillColor=none;align=center;verticalAlign=middle;whiteSpace=wrap;rounded=0;fontSize=20;fontFamily=Helvetica;fontColor=default;" parent="WNAg6DyZ-CmmunSY68zc-299" vertex="1">
          <mxGeometry x="73.68" y="-10" width="23.32" height="20" as="geometry" />
        </mxCell>
        <mxCell id="WNAg6DyZ-CmmunSY68zc-316" style="edgeStyle=none;shape=connector;rounded=0;hachureGap=4;orthogonalLoop=1;jettySize=auto;html=1;exitX=1;exitY=0.5;exitDx=0;exitDy=0;labelBackgroundColor=default;strokeColor=default;align=center;verticalAlign=middle;fontFamily=Helvetica;fontSource=https%3A%2F%2Ffonts.googleapis.com%2Fcss%3Ffamily%3DArchitects%2BDaughter;fontSize=9;fontColor=default;endArrow=none;endFill=0;" parent="WNAg6DyZ-CmmunSY68zc-318" source="WNAg6DyZ-CmmunSY68zc-174" target="WNAg6DyZ-CmmunSY68zc-300" edge="1">
          <mxGeometry relative="1" as="geometry" />
        </mxCell>
        <mxCell id="WNAg6DyZ-CmmunSY68zc-174" value="Sviluppatore" style="whiteSpace=wrap;html=1;align=center;hachureGap=4;fontFamily=Helvetica;fontSize=20;rounded=0;" parent="WNAg6DyZ-CmmunSY68zc-318" vertex="1">
          <mxGeometry x="107.17999999999984" y="70" width="130" height="40" as="geometry" />
        </mxCell>
        <mxCell id="WNAg6DyZ-CmmunSY68zc-175" value="" style="ellipse;whiteSpace=wrap;html=1;aspect=fixed;rounded=0;hachureGap=4;strokeColor=default;align=center;verticalAlign=middle;fontFamily=Helvetica;fontSize=20;fontColor=default;fillColor=#FFFFFF;" parent="WNAg6DyZ-CmmunSY68zc-318" vertex="1">
          <mxGeometry x="107.17999999999984" y="20" width="10" height="10" as="geometry" />
        </mxCell>
        <mxCell id="WNAg6DyZ-CmmunSY68zc-176" style="edgeStyle=none;shape=connector;rounded=0;hachureGap=4;orthogonalLoop=1;jettySize=auto;html=1;exitX=0.25;exitY=0;exitDx=0;exitDy=0;entryX=1;entryY=1;entryDx=0;entryDy=0;labelBackgroundColor=default;strokeColor=default;align=center;verticalAlign=middle;fontFamily=Helvetica;fontSource=https%3A%2F%2Ffonts.googleapis.com%2Fcss%3Ffamily%3DArchitects%2BDaughter;fontSize=20;fontColor=default;endArrow=none;endFill=0;" parent="WNAg6DyZ-CmmunSY68zc-318" source="WNAg6DyZ-CmmunSY68zc-174" target="WNAg6DyZ-CmmunSY68zc-175" edge="1">
          <mxGeometry relative="1" as="geometry" />
        </mxCell>
        <mxCell id="WNAg6DyZ-CmmunSY68zc-177" value="" style="ellipse;whiteSpace=wrap;html=1;aspect=fixed;rounded=0;hachureGap=4;strokeColor=default;align=center;verticalAlign=middle;fontFamily=Helvetica;fontSize=20;fontColor=default;fillColor=#FFFFFF;" parent="WNAg6DyZ-CmmunSY68zc-318" vertex="1">
          <mxGeometry x="62.179999999999836" y="120" width="10" height="10" as="geometry" />
        </mxCell>
        <mxCell id="WNAg6DyZ-CmmunSY68zc-178" style="edgeStyle=none;shape=connector;rounded=0;hachureGap=4;orthogonalLoop=1;jettySize=auto;html=1;exitX=0;exitY=1;exitDx=0;exitDy=0;labelBackgroundColor=default;strokeColor=default;align=center;verticalAlign=middle;fontFamily=Helvetica;fontSource=https%3A%2F%2Ffonts.googleapis.com%2Fcss%3Ffamily%3DArchitects%2BDaughter;fontSize=20;fontColor=default;endArrow=none;endFill=0;" parent="WNAg6DyZ-CmmunSY68zc-318" source="WNAg6DyZ-CmmunSY68zc-174" target="WNAg6DyZ-CmmunSY68zc-177" edge="1">
          <mxGeometry relative="1" as="geometry" />
        </mxCell>
        <mxCell id="WNAg6DyZ-CmmunSY68zc-179" value="" style="ellipse;whiteSpace=wrap;html=1;aspect=fixed;rounded=0;hachureGap=4;strokeColor=default;align=center;verticalAlign=middle;fontFamily=Helvetica;fontSize=20;fontColor=default;fillColor=#FFFFFF;" parent="WNAg6DyZ-CmmunSY68zc-318" vertex="1">
          <mxGeometry x="40.47000000000003" y="85" width="10" height="10" as="geometry" />
        </mxCell>
        <mxCell id="WNAg6DyZ-CmmunSY68zc-180" style="edgeStyle=none;shape=connector;rounded=0;hachureGap=4;orthogonalLoop=1;jettySize=auto;html=1;exitX=0;exitY=0.5;exitDx=0;exitDy=0;labelBackgroundColor=default;strokeColor=default;align=center;verticalAlign=middle;fontFamily=Helvetica;fontSource=https%3A%2F%2Ffonts.googleapis.com%2Fcss%3Ffamily%3DArchitects%2BDaughter;fontSize=20;fontColor=default;endArrow=none;endFill=0;" parent="WNAg6DyZ-CmmunSY68zc-318" source="WNAg6DyZ-CmmunSY68zc-174" target="WNAg6DyZ-CmmunSY68zc-179" edge="1">
          <mxGeometry relative="1" as="geometry">
            <mxPoint x="49.059999999999945" y="90" as="targetPoint" />
          </mxGeometry>
        </mxCell>
        <mxCell id="WNAg6DyZ-CmmunSY68zc-181" value="" style="ellipse;whiteSpace=wrap;html=1;aspect=fixed;rounded=0;hachureGap=4;strokeColor=default;align=center;verticalAlign=middle;fontFamily=Helvetica;fontSize=20;fontColor=default;fillColor=#FFFFFF;" parent="WNAg6DyZ-CmmunSY68zc-318" vertex="1">
          <mxGeometry x="227.17999999999984" y="30" width="10" height="10" as="geometry" />
        </mxCell>
        <mxCell id="WNAg6DyZ-CmmunSY68zc-182" style="edgeStyle=none;shape=connector;rounded=0;hachureGap=4;orthogonalLoop=1;jettySize=auto;html=1;exitX=0.75;exitY=0;exitDx=0;exitDy=0;entryX=0;entryY=1;entryDx=0;entryDy=0;labelBackgroundColor=default;strokeColor=default;align=center;verticalAlign=middle;fontFamily=Helvetica;fontSource=https%3A%2F%2Ffonts.googleapis.com%2Fcss%3Ffamily%3DArchitects%2BDaughter;fontSize=20;fontColor=default;endArrow=none;endFill=0;" parent="WNAg6DyZ-CmmunSY68zc-318" source="WNAg6DyZ-CmmunSY68zc-174" target="WNAg6DyZ-CmmunSY68zc-181" edge="1">
          <mxGeometry relative="1" as="geometry" />
        </mxCell>
        <mxCell id="WNAg6DyZ-CmmunSY68zc-183" value="&lt;font style=&quot;font-size: 10px;&quot;&gt;Nome&lt;/font&gt;" style="text;html=1;strokeColor=none;fillColor=none;align=center;verticalAlign=middle;whiteSpace=wrap;rounded=0;fontSize=20;fontFamily=Helvetica;fontColor=default;" parent="WNAg6DyZ-CmmunSY68zc-318" vertex="1">
          <mxGeometry x="90.92999999999984" width="42.5" height="20" as="geometry" />
        </mxCell>
        <mxCell id="WNAg6DyZ-CmmunSY68zc-184" value="&lt;font style=&quot;font-size: 10px;&quot;&gt;Telefono&lt;/font&gt;" style="text;html=1;strokeColor=none;fillColor=none;align=center;verticalAlign=middle;whiteSpace=wrap;rounded=0;fontSize=20;fontFamily=Helvetica;fontColor=default;" parent="WNAg6DyZ-CmmunSY68zc-318" vertex="1">
          <mxGeometry x="19.679999999999836" y="110" width="42.5" height="20" as="geometry" />
        </mxCell>
        <mxCell id="WNAg6DyZ-CmmunSY68zc-185" value="&lt;font style=&quot;font-size: 10px;&quot;&gt;Email&lt;/font&gt;" style="text;html=1;strokeColor=none;fillColor=none;align=center;verticalAlign=middle;whiteSpace=wrap;rounded=0;fontSize=20;fontFamily=Helvetica;fontColor=default;" parent="WNAg6DyZ-CmmunSY68zc-318" vertex="1">
          <mxGeometry x="204.05999999999995" y="10" width="56.25" height="20" as="geometry" />
        </mxCell>
        <mxCell id="WNAg6DyZ-CmmunSY68zc-186" value="" style="group" parent="WNAg6DyZ-CmmunSY68zc-318" vertex="1" connectable="0">
          <mxGeometry x="57.179999999999836" y="20" width="15" height="30" as="geometry" />
        </mxCell>
        <mxCell id="WNAg6DyZ-CmmunSY68zc-187" value="" style="ellipse;whiteSpace=wrap;html=1;aspect=fixed;rounded=0;hachureGap=4;strokeColor=default;align=center;verticalAlign=middle;fontFamily=Helvetica;fontSize=20;fontColor=default;fillColor=#000000;" parent="WNAg6DyZ-CmmunSY68zc-186" vertex="1">
          <mxGeometry x="2.5" y="20" width="10" height="10" as="geometry" />
        </mxCell>
        <mxCell id="WNAg6DyZ-CmmunSY68zc-188" value="&lt;font style=&quot;font-size: 10px;&quot;&gt;ID_Sviluppatore&lt;/font&gt;" style="text;html=1;strokeColor=none;fillColor=none;align=center;verticalAlign=middle;whiteSpace=wrap;rounded=0;fontSize=20;fontFamily=Helvetica;fontColor=default;" parent="WNAg6DyZ-CmmunSY68zc-186" vertex="1">
          <mxGeometry x="-30" width="75" height="20" as="geometry" />
        </mxCell>
        <mxCell id="WNAg6DyZ-CmmunSY68zc-189" style="rounded=0;hachureGap=4;orthogonalLoop=1;jettySize=auto;html=1;exitX=0;exitY=0;exitDx=0;exitDy=0;entryX=1;entryY=1;entryDx=0;entryDy=0;fontFamily=Helvetica;fontSource=https%3A%2F%2Ffonts.googleapis.com%2Fcss%3Ffamily%3DArchitects%2BDaughter;fontSize=20;fontColor=default;endArrow=none;endFill=0;" parent="WNAg6DyZ-CmmunSY68zc-318" source="WNAg6DyZ-CmmunSY68zc-174" target="WNAg6DyZ-CmmunSY68zc-187" edge="1">
          <mxGeometry relative="1" as="geometry" />
        </mxCell>
        <mxCell id="WNAg6DyZ-CmmunSY68zc-190" value="&lt;font style=&quot;font-size: 10px;&quot;&gt;PIVA&lt;br&gt;&lt;/font&gt;" style="text;html=1;strokeColor=none;fillColor=none;align=center;verticalAlign=middle;whiteSpace=wrap;rounded=0;fontSize=20;fontFamily=Helvetica;fontColor=default;" parent="WNAg6DyZ-CmmunSY68zc-318" vertex="1">
          <mxGeometry y="65" width="90.93" height="20" as="geometry" />
        </mxCell>
        <mxCell id="WNAg6DyZ-CmmunSY68zc-206" value="&lt;font color=&quot;#ff8000&quot; style=&quot;font-size: 10px;&quot; face=&quot;Helvetica&quot;&gt;(1, N)&lt;/font&gt;" style="text;html=1;align=center;verticalAlign=middle;resizable=0;points=[];autosize=1;fontSize=20;fontFamily=Architects Daughter;" parent="WNAg6DyZ-CmmunSY68zc-318" vertex="1">
          <mxGeometry x="162.18999999999983" y="40" width="50" height="40" as="geometry" />
        </mxCell>
      </root>
    </mxGraphModel>
  </diagram>
</mxfile>
